<svg xmlns="http://www.w3.org/2000/svg" width="1280" height="760" viewBox="0 0 1280 760">
<style>text{font-family:Arial, sans-serif} .title{font-weight:700;font-size:24px}</style>
<rect width="100%" height="100%" fill="white"/>
<text class="title" x="90" y="38">Ошибки по всем тематикам от p_correct</text>
<text x="90" y="732" font-size="13" fill="#374151">p_correct threshold</text>
<text transform="translate(24 375.0) rotate(-90)" font-size="13" fill="#374151">errors</text>
<line x1="90" y1="680.00" x2="950" y2="680.00" stroke="#e5e7eb"/><text x="80" y="684.00" text-anchor="end" font-size="12" fill="#374151">0</text><line x1="90" y1="558.00" x2="950" y2="558.00" stroke="#e5e7eb"/><text x="80" y="562.00" text-anchor="end" font-size="12" fill="#374151">2</text><line x1="90" y1="436.00" x2="950" y2="436.00" stroke="#e5e7eb"/><text x="80" y="440.00" text-anchor="end" font-size="12" fill="#374151">3</text><line x1="90" y1="314.00" x2="950" y2="314.00" stroke="#e5e7eb"/><text x="80" y="318.00" text-anchor="end" font-size="12" fill="#374151">5</text><line x1="90" y1="192.00" x2="950" y2="192.00" stroke="#e5e7eb"/><text x="80" y="196.00" text-anchor="end" font-size="12" fill="#374151">6</text><line x1="90" y1="70.00" x2="950" y2="70.00" stroke="#e5e7eb"/><text x="80" y="74.00" text-anchor="end" font-size="12" fill="#374151">8</text><line x1="90.00" y1="70" x2="90.00" y2="680" stroke="#f3f4f6"/><text x="90.00" y="704" text-anchor="middle" font-size="12" fill="#374151">0.70</text><line x1="262.00" y1="70" x2="262.00" y2="680" stroke="#f3f4f6"/><text x="262.00" y="704" text-anchor="middle" font-size="12" fill="#374151">0.75</text><line x1="434.00" y1="70" x2="434.00" y2="680" stroke="#f3f4f6"/><text x="434.00" y="704" text-anchor="middle" font-size="12" fill="#374151">0.80</text><line x1="606.00" y1="70" x2="606.00" y2="680" stroke="#f3f4f6"/><text x="606.00" y="704" text-anchor="middle" font-size="12" fill="#374151">0.85</text><line x1="778.00" y1="70" x2="778.00" y2="680" stroke="#f3f4f6"/><text x="778.00" y="704" text-anchor="middle" font-size="12" fill="#374151">0.90</text><line x1="950.00" y1="70" x2="950.00" y2="680" stroke="#f3f4f6"/><text x="950.00" y="704" text-anchor="middle" font-size="12" fill="#374151">0.95</text>
<line x1="90" y1="70" x2="90" y2="680" stroke="#111827"/>
<line x1="90" y1="680" x2="950" y2="680" stroke="#111827"/>
<polyline points="90.00,524.39 124.40,524.39 158.80,524.39 193.20,602.19 227.60,602.19 262.00,680.00 296.40,680.00 330.80,680.00 365.20,680.00 399.60,680.00 434.00,680.00 468.40,680.00 502.80,680.00 537.20,680.00 571.60,680.00 606.00,680.00 640.40,680.00 674.80,680.00 709.20,680.00 743.60,680.00 778.00,680.00 812.40,680.00 846.80,680.00 881.20,680.00 915.60,680.00 950.00,680.00" fill="none" stroke="#2563eb" stroke-width="2.3"/><circle cx="90.00" cy="524.39" r="2.8" fill="#2563eb"><title>ВЗР изменения threshold 0.70: 2</title></circle><circle cx="124.40" cy="524.39" r="2.8" fill="#2563eb"><title>ВЗР изменения threshold 0.71: 2</title></circle><circle cx="158.80" cy="524.39" r="2.8" fill="#2563eb"><title>ВЗР изменения threshold 0.72: 2</title></circle><circle cx="193.20" cy="602.19" r="2.8" fill="#2563eb"><title>ВЗР изменения threshold 0.73: 1</title></circle><circle cx="227.60" cy="602.19" r="2.8" fill="#2563eb"><title>ВЗР изменения threshold 0.74: 1</title></circle><circle cx="262.00" cy="680.00" r="2.8" fill="#2563eb"><title>ВЗР изменения threshold 0.75: 0</title></circle><circle cx="296.40" cy="680.00" r="2.8" fill="#2563eb"><title>ВЗР изменения threshold 0.76: 0</title></circle><circle cx="330.80" cy="680.00" r="2.8" fill="#2563eb"><title>ВЗР изменения threshold 0.77: 0</title></circle><circle cx="365.20" cy="680.00" r="2.8" fill="#2563eb"><title>ВЗР изменения threshold 0.78: 0</title></circle><circle cx="399.60" cy="680.00" r="2.8" fill="#2563eb"><title>ВЗР изменения threshold 0.79: 0</title></circle><circle cx="434.00" cy="680.00" r="2.8" fill="#2563eb"><title>ВЗР изменения threshold 0.80: 0</title></circle><circle cx="468.40" cy="680.00" r="2.8" fill="#2563eb"><title>ВЗР изменения threshold 0.81: 0</title></circle><circle cx="502.80" cy="680.00" r="2.8" fill="#2563eb"><title>ВЗР изменения threshold 0.82: 0</title></circle><circle cx="537.20" cy="680.00" r="2.8" fill="#2563eb"><title>ВЗР изменения threshold 0.83: 0</title></circle><circle cx="571.60" cy="680.00" r="2.8" fill="#2563eb"><title>ВЗР изменения threshold 0.84: 0</title></circle><circle cx="606.00" cy="680.00" r="2.8" fill="#2563eb"><title>ВЗР изменения threshold 0.85: 0</title></circle><circle cx="640.40" cy="680.00" r="2.8" fill="#2563eb"><title>ВЗР изменения threshold 0.86: 0</title></circle><circle cx="674.80" cy="680.00" r="2.8" fill="#2563eb"><title>ВЗР изменения threshold 0.87: 0</title></circle><circle cx="709.20" cy="680.00" r="2.8" fill="#2563eb"><title>ВЗР изменения threshold 0.88: 0</title></circle><circle cx="743.60" cy="680.00" r="2.8" fill="#2563eb"><title>ВЗР изменения threshold 0.89: 0</title></circle><circle cx="778.00" cy="680.00" r="2.8" fill="#2563eb"><title>ВЗР изменения threshold 0.90: 0</title></circle><circle cx="812.40" cy="680.00" r="2.8" fill="#2563eb"><title>ВЗР изменения threshold 0.91: 0</title></circle><circle cx="846.80" cy="680.00" r="2.8" fill="#2563eb"><title>ВЗР изменения threshold 0.92: 0</title></circle><circle cx="881.20" cy="680.00" r="2.8" fill="#2563eb"><title>ВЗР изменения threshold 0.93: 0</title></circle><circle cx="915.60" cy="680.00" r="2.8" fill="#2563eb"><title>ВЗР изменения threshold 0.94: 0</title></circle><circle cx="950.00" cy="680.00" r="2.8" fill="#2563eb"><title>ВЗР изменения threshold 0.95: 0</title></circle><polyline points="90.00,135.36 124.40,135.36 158.80,135.36 193.20,135.36 227.60,135.36 262.00,135.36 296.40,135.36 330.80,135.36 365.20,135.36 399.60,135.36 434.00,213.16 468.40,213.16 502.80,446.58 537.20,446.58 571.60,446.58 606.00,524.39 640.40,524.39 674.80,524.39 709.20,524.39 743.60,524.39 778.00,524.39 812.40,602.19 846.80,602.19 881.20,602.19 915.60,602.19 950.00,602.19" fill="none" stroke="#dc2626" stroke-width="2.3"/><circle cx="90.00" cy="135.36" r="2.8" fill="#dc2626"><title>ВЗР оформление threshold 0.70: 7</title></circle><circle cx="124.40" cy="135.36" r="2.8" fill="#dc2626"><title>ВЗР оформление threshold 0.71: 7</title></circle><circle cx="158.80" cy="135.36" r="2.8" fill="#dc2626"><title>ВЗР оформление threshold 0.72: 7</title></circle><circle cx="193.20" cy="135.36" r="2.8" fill="#dc2626"><title>ВЗР оформление threshold 0.73: 7</title></circle><circle cx="227.60" cy="135.36" r="2.8" fill="#dc2626"><title>ВЗР оформление threshold 0.74: 7</title></circle><circle cx="262.00" cy="135.36" r="2.8" fill="#dc2626"><title>ВЗР оформление threshold 0.75: 7</title></circle><circle cx="296.40" cy="135.36" r="2.8" fill="#dc2626"><title>ВЗР оформление threshold 0.76: 7</title></circle><circle cx="330.80" cy="135.36" r="2.8" fill="#dc2626"><title>ВЗР оформление threshold 0.77: 7</title></circle><circle cx="365.20" cy="135.36" r="2.8" fill="#dc2626"><title>ВЗР оформление threshold 0.78: 7</title></circle><circle cx="399.60" cy="135.36" r="2.8" fill="#dc2626"><title>ВЗР оформление threshold 0.79: 7</title></circle><circle cx="434.00" cy="213.16" r="2.8" fill="#dc2626"><title>ВЗР оформление threshold 0.80: 6</title></circle><circle cx="468.40" cy="213.16" r="2.8" fill="#dc2626"><title>ВЗР оформление threshold 0.81: 6</title></circle><circle cx="502.80" cy="446.58" r="2.8" fill="#dc2626"><title>ВЗР оформление threshold 0.82: 3</title></circle><circle cx="537.20" cy="446.58" r="2.8" fill="#dc2626"><title>ВЗР оформление threshold 0.83: 3</title></circle><circle cx="571.60" cy="446.58" r="2.8" fill="#dc2626"><title>ВЗР оформление threshold 0.84: 3</title></circle><circle cx="606.00" cy="524.39" r="2.8" fill="#dc2626"><title>ВЗР оформление threshold 0.85: 2</title></circle><circle cx="640.40" cy="524.39" r="2.8" fill="#dc2626"><title>ВЗР оформление threshold 0.86: 2</title></circle><circle cx="674.80" cy="524.39" r="2.8" fill="#dc2626"><title>ВЗР оформление threshold 0.87: 2</title></circle><circle cx="709.20" cy="524.39" r="2.8" fill="#dc2626"><title>ВЗР оформление threshold 0.88: 2</title></circle><circle cx="743.60" cy="524.39" r="2.8" fill="#dc2626"><title>ВЗР оформление threshold 0.89: 2</title></circle><circle cx="778.00" cy="524.39" r="2.8" fill="#dc2626"><title>ВЗР оформление threshold 0.90: 2</title></circle><circle cx="812.40" cy="602.19" r="2.8" fill="#dc2626"><title>ВЗР оформление threshold 0.91: 1</title></circle><circle cx="846.80" cy="602.19" r="2.8" fill="#dc2626"><title>ВЗР оформление threshold 0.92: 1</title></circle><circle cx="881.20" cy="602.19" r="2.8" fill="#dc2626"><title>ВЗР оформление threshold 0.93: 1</title></circle><circle cx="915.60" cy="602.19" r="2.8" fill="#dc2626"><title>ВЗР оформление threshold 0.94: 1</title></circle><circle cx="950.00" cy="602.19" r="2.8" fill="#dc2626"><title>ВЗР оформление threshold 0.95: 1</title></circle><polyline points="90.00,446.58 124.40,446.58 158.80,446.58 193.20,446.58 227.60,446.58 262.00,524.39 296.40,524.39 330.80,524.39 365.20,602.19 399.60,602.19 434.00,602.19 468.40,602.19 502.80,602.19 537.20,602.19 571.60,602.19 606.00,602.19 640.40,602.19 674.80,602.19 709.20,602.19 743.60,602.19 778.00,602.19 812.40,602.19 846.80,680.00 881.20,680.00 915.60,680.00 950.00,680.00" fill="none" stroke="#16a34a" stroke-width="2.3"/><circle cx="90.00" cy="446.58" r="2.8" fill="#16a34a"><title>ВЗР пролонгации threshold 0.70: 3</title></circle><circle cx="124.40" cy="446.58" r="2.8" fill="#16a34a"><title>ВЗР пролонгации threshold 0.71: 3</title></circle><circle cx="158.80" cy="446.58" r="2.8" fill="#16a34a"><title>ВЗР пролонгации threshold 0.72: 3</title></circle><circle cx="193.20" cy="446.58" r="2.8" fill="#16a34a"><title>ВЗР пролонгации threshold 0.73: 3</title></circle><circle cx="227.60" cy="446.58" r="2.8" fill="#16a34a"><title>ВЗР пролонгации threshold 0.74: 3</title></circle><circle cx="262.00" cy="524.39" r="2.8" fill="#16a34a"><title>ВЗР пролонгации threshold 0.75: 2</title></circle><circle cx="296.40" cy="524.39" r="2.8" fill="#16a34a"><title>ВЗР пролонгации threshold 0.76: 2</title></circle><circle cx="330.80" cy="524.39" r="2.8" fill="#16a34a"><title>ВЗР пролонгации threshold 0.77: 2</title></circle><circle cx="365.20" cy="602.19" r="2.8" fill="#16a34a"><title>ВЗР пролонгации threshold 0.78: 1</title></circle><circle cx="399.60" cy="602.19" r="2.8" fill="#16a34a"><title>ВЗР пролонгации threshold 0.79: 1</title></circle><circle cx="434.00" cy="602.19" r="2.8" fill="#16a34a"><title>ВЗР пролонгации threshold 0.80: 1</title></circle><circle cx="468.40" cy="602.19" r="2.8" fill="#16a34a"><title>ВЗР пролонгации threshold 0.81: 1</title></circle><circle cx="502.80" cy="602.19" r="2.8" fill="#16a34a"><title>ВЗР пролонгации threshold 0.82: 1</title></circle><circle cx="537.20" cy="602.19" r="2.8" fill="#16a34a"><title>ВЗР пролонгации threshold 0.83: 1</title></circle><circle cx="571.60" cy="602.19" r="2.8" fill="#16a34a"><title>ВЗР пролонгации threshold 0.84: 1</title></circle><circle cx="606.00" cy="602.19" r="2.8" fill="#16a34a"><title>ВЗР пролонгации threshold 0.85: 1</title></circle><circle cx="640.40" cy="602.19" r="2.8" fill="#16a34a"><title>ВЗР пролонгации threshold 0.86: 1</title></circle><circle cx="674.80" cy="602.19" r="2.8" fill="#16a34a"><title>ВЗР пролонгации threshold 0.87: 1</title></circle><circle cx="709.20" cy="602.19" r="2.8" fill="#16a34a"><title>ВЗР пролонгации threshold 0.88: 1</title></circle><circle cx="743.60" cy="602.19" r="2.8" fill="#16a34a"><title>ВЗР пролонгации threshold 0.89: 1</title></circle><circle cx="778.00" cy="602.19" r="2.8" fill="#16a34a"><title>ВЗР пролонгации threshold 0.90: 1</title></circle><circle cx="812.40" cy="602.19" r="2.8" fill="#16a34a"><title>ВЗР пролонгации threshold 0.91: 1</title></circle><circle cx="846.80" cy="680.00" r="2.8" fill="#16a34a"><title>ВЗР пролонгации threshold 0.92: 0</title></circle><circle cx="881.20" cy="680.00" r="2.8" fill="#16a34a"><title>ВЗР пролонгации threshold 0.93: 0</title></circle><circle cx="915.60" cy="680.00" r="2.8" fill="#16a34a"><title>ВЗР пролонгации threshold 0.94: 0</title></circle><circle cx="950.00" cy="680.00" r="2.8" fill="#16a34a"><title>ВЗР пролонгации threshold 0.95: 0</title></circle><polyline points="90.00,290.97 124.40,290.97 158.80,446.58 193.20,446.58 227.60,524.39 262.00,680.00 296.40,680.00 330.80,680.00 365.20,680.00 399.60,680.00 434.00,680.00 468.40,680.00 502.80,680.00 537.20,680.00 571.60,680.00 606.00,680.00 640.40,680.00 674.80,680.00 709.20,680.00 743.60,680.00 778.00,680.00 812.40,680.00 846.80,680.00 881.20,680.00 915.60,680.00 950.00,680.00" fill="none" stroke="#9333ea" stroke-width="2.3"/><circle cx="90.00" cy="290.97" r="2.8" fill="#9333ea"><title>ВЗР расторжения threshold 0.70: 5</title></circle><circle cx="124.40" cy="290.97" r="2.8" fill="#9333ea"><title>ВЗР расторжения threshold 0.71: 5</title></circle><circle cx="158.80" cy="446.58" r="2.8" fill="#9333ea"><title>ВЗР расторжения threshold 0.72: 3</title></circle><circle cx="193.20" cy="446.58" r="2.8" fill="#9333ea"><title>ВЗР расторжения threshold 0.73: 3</title></circle><circle cx="227.60" cy="524.39" r="2.8" fill="#9333ea"><title>ВЗР расторжения threshold 0.74: 2</title></circle><circle cx="262.00" cy="680.00" r="2.8" fill="#9333ea"><title>ВЗР расторжения threshold 0.75: 0</title></circle><circle cx="296.40" cy="680.00" r="2.8" fill="#9333ea"><title>ВЗР расторжения threshold 0.76: 0</title></circle><circle cx="330.80" cy="680.00" r="2.8" fill="#9333ea"><title>ВЗР расторжения threshold 0.77: 0</title></circle><circle cx="365.20" cy="680.00" r="2.8" fill="#9333ea"><title>ВЗР расторжения threshold 0.78: 0</title></circle><circle cx="399.60" cy="680.00" r="2.8" fill="#9333ea"><title>ВЗР расторжения threshold 0.79: 0</title></circle><circle cx="434.00" cy="680.00" r="2.8" fill="#9333ea"><title>ВЗР расторжения threshold 0.80: 0</title></circle><circle cx="468.40" cy="680.00" r="2.8" fill="#9333ea"><title>ВЗР расторжения threshold 0.81: 0</title></circle><circle cx="502.80" cy="680.00" r="2.8" fill="#9333ea"><title>ВЗР расторжения threshold 0.82: 0</title></circle><circle cx="537.20" cy="680.00" r="2.8" fill="#9333ea"><title>ВЗР расторжения threshold 0.83: 0</title></circle><circle cx="571.60" cy="680.00" r="2.8" fill="#9333ea"><title>ВЗР расторжения threshold 0.84: 0</title></circle><circle cx="606.00" cy="680.00" r="2.8" fill="#9333ea"><title>ВЗР расторжения threshold 0.85: 0</title></circle><circle cx="640.40" cy="680.00" r="2.8" fill="#9333ea"><title>ВЗР расторжения threshold 0.86: 0</title></circle><circle cx="674.80" cy="680.00" r="2.8" fill="#9333ea"><title>ВЗР расторжения threshold 0.87: 0</title></circle><circle cx="709.20" cy="680.00" r="2.8" fill="#9333ea"><title>ВЗР расторжения threshold 0.88: 0</title></circle><circle cx="743.60" cy="680.00" r="2.8" fill="#9333ea"><title>ВЗР расторжения threshold 0.89: 0</title></circle><circle cx="778.00" cy="680.00" r="2.8" fill="#9333ea"><title>ВЗР расторжения threshold 0.90: 0</title></circle><circle cx="812.40" cy="680.00" r="2.8" fill="#9333ea"><title>ВЗР расторжения threshold 0.91: 0</title></circle><circle cx="846.80" cy="680.00" r="2.8" fill="#9333ea"><title>ВЗР расторжения threshold 0.92: 0</title></circle><circle cx="881.20" cy="680.00" r="2.8" fill="#9333ea"><title>ВЗР расторжения threshold 0.93: 0</title></circle><circle cx="915.60" cy="680.00" r="2.8" fill="#9333ea"><title>ВЗР расторжения threshold 0.94: 0</title></circle><circle cx="950.00" cy="680.00" r="2.8" fill="#9333ea"><title>ВЗР расторжения threshold 0.95: 0</title></circle><polyline points="90.00,213.16 124.40,213.16 158.80,213.16 193.20,213.16 227.60,290.97 262.00,290.97 296.40,290.97 330.80,368.78 365.20,602.19 399.60,680.00 434.00,680.00 468.40,680.00 502.80,680.00 537.20,680.00 571.60,680.00 606.00,680.00 640.40,680.00 674.80,680.00 709.20,680.00 743.60,680.00 778.00,680.00 812.40,680.00 846.80,680.00 881.20,680.00 915.60,680.00 950.00,680.00" fill="none" stroke="#ea580c" stroke-width="2.3"/><circle cx="90.00" cy="213.16" r="2.8" fill="#ea580c"><title>ВЗР урегулирование threshold 0.70: 6</title></circle><circle cx="124.40" cy="213.16" r="2.8" fill="#ea580c"><title>ВЗР урегулирование threshold 0.71: 6</title></circle><circle cx="158.80" cy="213.16" r="2.8" fill="#ea580c"><title>ВЗР урегулирование threshold 0.72: 6</title></circle><circle cx="193.20" cy="213.16" r="2.8" fill="#ea580c"><title>ВЗР урегулирование threshold 0.73: 6</title></circle><circle cx="227.60" cy="290.97" r="2.8" fill="#ea580c"><title>ВЗР урегулирование threshold 0.74: 5</title></circle><circle cx="262.00" cy="290.97" r="2.8" fill="#ea580c"><title>ВЗР урегулирование threshold 0.75: 5</title></circle><circle cx="296.40" cy="290.97" r="2.8" fill="#ea580c"><title>ВЗР урегулирование threshold 0.76: 5</title></circle><circle cx="330.80" cy="368.78" r="2.8" fill="#ea580c"><title>ВЗР урегулирование threshold 0.77: 4</title></circle><circle cx="365.20" cy="602.19" r="2.8" fill="#ea580c"><title>ВЗР урегулирование threshold 0.78: 1</title></circle><circle cx="399.60" cy="680.00" r="2.8" fill="#ea580c"><title>ВЗР урегулирование threshold 0.79: 0</title></circle><circle cx="434.00" cy="680.00" r="2.8" fill="#ea580c"><title>ВЗР урегулирование threshold 0.80: 0</title></circle><circle cx="468.40" cy="680.00" r="2.8" fill="#ea580c"><title>ВЗР урегулирование threshold 0.81: 0</title></circle><circle cx="502.80" cy="680.00" r="2.8" fill="#ea580c"><title>ВЗР урегулирование threshold 0.82: 0</title></circle><circle cx="537.20" cy="680.00" r="2.8" fill="#ea580c"><title>ВЗР урегулирование threshold 0.83: 0</title></circle><circle cx="571.60" cy="680.00" r="2.8" fill="#ea580c"><title>ВЗР урегулирование threshold 0.84: 0</title></circle><circle cx="606.00" cy="680.00" r="2.8" fill="#ea580c"><title>ВЗР урегулирование threshold 0.85: 0</title></circle><circle cx="640.40" cy="680.00" r="2.8" fill="#ea580c"><title>ВЗР урегулирование threshold 0.86: 0</title></circle><circle cx="674.80" cy="680.00" r="2.8" fill="#ea580c"><title>ВЗР урегулирование threshold 0.87: 0</title></circle><circle cx="709.20" cy="680.00" r="2.8" fill="#ea580c"><title>ВЗР урегулирование threshold 0.88: 0</title></circle><circle cx="743.60" cy="680.00" r="2.8" fill="#ea580c"><title>ВЗР урегулирование threshold 0.89: 0</title></circle><circle cx="778.00" cy="680.00" r="2.8" fill="#ea580c"><title>ВЗР урегулирование threshold 0.90: 0</title></circle><circle cx="812.40" cy="680.00" r="2.8" fill="#ea580c"><title>ВЗР урегулирование threshold 0.91: 0</title></circle><circle cx="846.80" cy="680.00" r="2.8" fill="#ea580c"><title>ВЗР урегулирование threshold 0.92: 0</title></circle><circle cx="881.20" cy="680.00" r="2.8" fill="#ea580c"><title>ВЗР урегулирование threshold 0.93: 0</title></circle><circle cx="915.60" cy="680.00" r="2.8" fill="#ea580c"><title>ВЗР урегулирование threshold 0.94: 0</title></circle><circle cx="950.00" cy="680.00" r="2.8" fill="#ea580c"><title>ВЗР урегулирование threshold 0.95: 0</title></circle><polyline points="90.00,213.16 124.40,213.16 158.80,213.16 193.20,213.16 227.60,213.16 262.00,213.16 296.40,446.58 330.80,446.58 365.20,446.58 399.60,446.58 434.00,602.19 468.40,680.00 502.80,680.00 537.20,680.00 571.60,680.00 606.00,680.00 640.40,680.00 674.80,680.00 709.20,680.00 743.60,680.00 778.00,680.00 812.40,680.00 846.80,680.00 881.20,680.00 915.60,680.00 950.00,680.00" fill="none" stroke="#0891b2" stroke-width="2.3"/><circle cx="90.00" cy="213.16" r="2.8" fill="#0891b2"><title>КАСКО оформление threshold 0.70: 6</title></circle><circle cx="124.40" cy="213.16" r="2.8" fill="#0891b2"><title>КАСКО оформление threshold 0.71: 6</title></circle><circle cx="158.80" cy="213.16" r="2.8" fill="#0891b2"><title>КАСКО оформление threshold 0.72: 6</title></circle><circle cx="193.20" cy="213.16" r="2.8" fill="#0891b2"><title>КАСКО оформление threshold 0.73: 6</title></circle><circle cx="227.60" cy="213.16" r="2.8" fill="#0891b2"><title>КАСКО оформление threshold 0.74: 6</title></circle><circle cx="262.00" cy="213.16" r="2.8" fill="#0891b2"><title>КАСКО оформление threshold 0.75: 6</title></circle><circle cx="296.40" cy="446.58" r="2.8" fill="#0891b2"><title>КАСКО оформление threshold 0.76: 3</title></circle><circle cx="330.80" cy="446.58" r="2.8" fill="#0891b2"><title>КАСКО оформление threshold 0.77: 3</title></circle><circle cx="365.20" cy="446.58" r="2.8" fill="#0891b2"><title>КАСКО оформление threshold 0.78: 3</title></circle><circle cx="399.60" cy="446.58" r="2.8" fill="#0891b2"><title>КАСКО оформление threshold 0.79: 3</title></circle><circle cx="434.00" cy="602.19" r="2.8" fill="#0891b2"><title>КАСКО оформление threshold 0.80: 1</title></circle><circle cx="468.40" cy="680.00" r="2.8" fill="#0891b2"><title>КАСКО оформление threshold 0.81: 0</title></circle><circle cx="502.80" cy="680.00" r="2.8" fill="#0891b2"><title>КАСКО оформление threshold 0.82: 0</title></circle><circle cx="537.20" cy="680.00" r="2.8" fill="#0891b2"><title>КАСКО оформление threshold 0.83: 0</title></circle><circle cx="571.60" cy="680.00" r="2.8" fill="#0891b2"><title>КАСКО оформление threshold 0.84: 0</title></circle><circle cx="606.00" cy="680.00" r="2.8" fill="#0891b2"><title>КАСКО оформление threshold 0.85: 0</title></circle><circle cx="640.40" cy="680.00" r="2.8" fill="#0891b2"><title>КАСКО оформление threshold 0.86: 0</title></circle><circle cx="674.80" cy="680.00" r="2.8" fill="#0891b2"><title>КАСКО оформление threshold 0.87: 0</title></circle><circle cx="709.20" cy="680.00" r="2.8" fill="#0891b2"><title>КАСКО оформление threshold 0.88: 0</title></circle><circle cx="743.60" cy="680.00" r="2.8" fill="#0891b2"><title>КАСКО оформление threshold 0.89: 0</title></circle><circle cx="778.00" cy="680.00" r="2.8" fill="#0891b2"><title>КАСКО оформление threshold 0.90: 0</title></circle><circle cx="812.40" cy="680.00" r="2.8" fill="#0891b2"><title>КАСКО оформление threshold 0.91: 0</title></circle><circle cx="846.80" cy="680.00" r="2.8" fill="#0891b2"><title>КАСКО оформление threshold 0.92: 0</title></circle><circle cx="881.20" cy="680.00" r="2.8" fill="#0891b2"><title>КАСКО оформление threshold 0.93: 0</title></circle><circle cx="915.60" cy="680.00" r="2.8" fill="#0891b2"><title>КАСКО оформление threshold 0.94: 0</title></circle><circle cx="950.00" cy="680.00" r="2.8" fill="#0891b2"><title>КАСКО оформление threshold 0.95: 0</title></circle><polyline points="90.00,290.97 124.40,368.78 158.80,368.78 193.20,446.58 227.60,446.58 262.00,446.58 296.40,446.58 330.80,524.39 365.20,524.39 399.60,602.19 434.00,602.19 468.40,602.19 502.80,602.19 537.20,602.19 571.60,602.19 606.00,680.00 640.40,680.00 674.80,680.00 709.20,680.00 743.60,680.00 778.00,680.00 812.40,680.00 846.80,680.00 881.20,680.00 915.60,680.00 950.00,680.00" fill="none" stroke="#be123c" stroke-width="2.3"/><circle cx="90.00" cy="290.97" r="2.8" fill="#be123c"><title>КАСКО пролонгации threshold 0.70: 5</title></circle><circle cx="124.40" cy="368.78" r="2.8" fill="#be123c"><title>КАСКО пролонгации threshold 0.71: 4</title></circle><circle cx="158.80" cy="368.78" r="2.8" fill="#be123c"><title>КАСКО пролонгации threshold 0.72: 4</title></circle><circle cx="193.20" cy="446.58" r="2.8" fill="#be123c"><title>КАСКО пролонгации threshold 0.73: 3</title></circle><circle cx="227.60" cy="446.58" r="2.8" fill="#be123c"><title>КАСКО пролонгации threshold 0.74: 3</title></circle><circle cx="262.00" cy="446.58" r="2.8" fill="#be123c"><title>КАСКО пролонгации threshold 0.75: 3</title></circle><circle cx="296.40" cy="446.58" r="2.8" fill="#be123c"><title>КАСКО пролонгации threshold 0.76: 3</title></circle><circle cx="330.80" cy="524.39" r="2.8" fill="#be123c"><title>КАСКО пролонгации threshold 0.77: 2</title></circle><circle cx="365.20" cy="524.39" r="2.8" fill="#be123c"><title>КАСКО пролонгации threshold 0.78: 2</title></circle><circle cx="399.60" cy="602.19" r="2.8" fill="#be123c"><title>КАСКО пролонгации threshold 0.79: 1</title></circle><circle cx="434.00" cy="602.19" r="2.8" fill="#be123c"><title>КАСКО пролонгации threshold 0.80: 1</title></circle><circle cx="468.40" cy="602.19" r="2.8" fill="#be123c"><title>КАСКО пролонгации threshold 0.81: 1</title></circle><circle cx="502.80" cy="602.19" r="2.8" fill="#be123c"><title>КАСКО пролонгации threshold 0.82: 1</title></circle><circle cx="537.20" cy="602.19" r="2.8" fill="#be123c"><title>КАСКО пролонгации threshold 0.83: 1</title></circle><circle cx="571.60" cy="602.19" r="2.8" fill="#be123c"><title>КАСКО пролонгации threshold 0.84: 1</title></circle><circle cx="606.00" cy="680.00" r="2.8" fill="#be123c"><title>КАСКО пролонгации threshold 0.85: 0</title></circle><circle cx="640.40" cy="680.00" r="2.8" fill="#be123c"><title>КАСКО пролонгации threshold 0.86: 0</title></circle><circle cx="674.80" cy="680.00" r="2.8" fill="#be123c"><title>КАСКО пролонгации threshold 0.87: 0</title></circle><circle cx="709.20" cy="680.00" r="2.8" fill="#be123c"><title>КАСКО пролонгации threshold 0.88: 0</title></circle><circle cx="743.60" cy="680.00" r="2.8" fill="#be123c"><title>КАСКО пролонгации threshold 0.89: 0</title></circle><circle cx="778.00" cy="680.00" r="2.8" fill="#be123c"><title>КАСКО пролонгации threshold 0.90: 0</title></circle><circle cx="812.40" cy="680.00" r="2.8" fill="#be123c"><title>КАСКО пролонгации threshold 0.91: 0</title></circle><circle cx="846.80" cy="680.00" r="2.8" fill="#be123c"><title>КАСКО пролонгации threshold 0.92: 0</title></circle><circle cx="881.20" cy="680.00" r="2.8" fill="#be123c"><title>КАСКО пролонгации threshold 0.93: 0</title></circle><circle cx="915.60" cy="680.00" r="2.8" fill="#be123c"><title>КАСКО пролонгации threshold 0.94: 0</title></circle><circle cx="950.00" cy="680.00" r="2.8" fill="#be123c"><title>КАСКО пролонгации threshold 0.95: 0</title></circle><polyline points="90.00,135.36 124.40,135.36 158.80,135.36 193.20,135.36 227.60,135.36 262.00,135.36 296.40,135.36 330.80,135.36 365.20,135.36 399.60,135.36 434.00,135.36 468.40,135.36 502.80,135.36 537.20,135.36 571.60,135.36 606.00,135.36 640.40,135.36 674.80,135.36 709.20,135.36 743.60,135.36 778.00,135.36 812.40,135.36 846.80,135.36 881.20,135.36 915.60,135.36 950.00,135.36" fill="none" stroke="#4f46e5" stroke-width="2.3"/><circle cx="90.00" cy="135.36" r="2.8" fill="#4f46e5"><title>КАСКО расторжение threshold 0.70: 7</title></circle><circle cx="124.40" cy="135.36" r="2.8" fill="#4f46e5"><title>КАСКО расторжение threshold 0.71: 7</title></circle><circle cx="158.80" cy="135.36" r="2.8" fill="#4f46e5"><title>КАСКО расторжение threshold 0.72: 7</title></circle><circle cx="193.20" cy="135.36" r="2.8" fill="#4f46e5"><title>КАСКО расторжение threshold 0.73: 7</title></circle><circle cx="227.60" cy="135.36" r="2.8" fill="#4f46e5"><title>КАСКО расторжение threshold 0.74: 7</title></circle><circle cx="262.00" cy="135.36" r="2.8" fill="#4f46e5"><title>КАСКО расторжение threshold 0.75: 7</title></circle><circle cx="296.40" cy="135.36" r="2.8" fill="#4f46e5"><title>КАСКО расторжение threshold 0.76: 7</title></circle><circle cx="330.80" cy="135.36" r="2.8" fill="#4f46e5"><title>КАСКО расторжение threshold 0.77: 7</title></circle><circle cx="365.20" cy="135.36" r="2.8" fill="#4f46e5"><title>КАСКО расторжение threshold 0.78: 7</title></circle><circle cx="399.60" cy="135.36" r="2.8" fill="#4f46e5"><title>КАСКО расторжение threshold 0.79: 7</title></circle><circle cx="434.00" cy="135.36" r="2.8" fill="#4f46e5"><title>КАСКО расторжение threshold 0.80: 7</title></circle><circle cx="468.40" cy="135.36" r="2.8" fill="#4f46e5"><title>КАСКО расторжение threshold 0.81: 7</title></circle><circle cx="502.80" cy="135.36" r="2.8" fill="#4f46e5"><title>КАСКО расторжение threshold 0.82: 7</title></circle><circle cx="537.20" cy="135.36" r="2.8" fill="#4f46e5"><title>КАСКО расторжение threshold 0.83: 7</title></circle><circle cx="571.60" cy="135.36" r="2.8" fill="#4f46e5"><title>КАСКО расторжение threshold 0.84: 7</title></circle><circle cx="606.00" cy="135.36" r="2.8" fill="#4f46e5"><title>КАСКО расторжение threshold 0.85: 7</title></circle><circle cx="640.40" cy="135.36" r="2.8" fill="#4f46e5"><title>КАСКО расторжение threshold 0.86: 7</title></circle><circle cx="674.80" cy="135.36" r="2.8" fill="#4f46e5"><title>КАСКО расторжение threshold 0.87: 7</title></circle><circle cx="709.20" cy="135.36" r="2.8" fill="#4f46e5"><title>КАСКО расторжение threshold 0.88: 7</title></circle><circle cx="743.60" cy="135.36" r="2.8" fill="#4f46e5"><title>КАСКО расторжение threshold 0.89: 7</title></circle><circle cx="778.00" cy="135.36" r="2.8" fill="#4f46e5"><title>КАСКО расторжение threshold 0.90: 7</title></circle><circle cx="812.40" cy="135.36" r="2.8" fill="#4f46e5"><title>КАСКО расторжение threshold 0.91: 7</title></circle><circle cx="846.80" cy="135.36" r="2.8" fill="#4f46e5"><title>КАСКО расторжение threshold 0.92: 7</title></circle><circle cx="881.20" cy="135.36" r="2.8" fill="#4f46e5"><title>КАСКО расторжение threshold 0.93: 7</title></circle><circle cx="915.60" cy="135.36" r="2.8" fill="#4f46e5"><title>КАСКО расторжение threshold 0.94: 7</title></circle><circle cx="950.00" cy="135.36" r="2.8" fill="#4f46e5"><title>КАСКО расторжение threshold 0.95: 7</title></circle><polyline points="90.00,602.19 124.40,602.19 158.80,602.19 193.20,602.19 227.60,602.19 262.00,602.19 296.40,602.19 330.80,602.19 365.20,602.19 399.60,602.19 434.00,602.19 468.40,602.19 502.80,602.19 537.20,602.19 571.60,602.19 606.00,602.19 640.40,602.19 674.80,602.19 709.20,602.19 743.60,602.19 778.00,602.19 812.40,602.19 846.80,602.19 881.20,602.19 915.60,602.19 950.00,602.19" fill="none" stroke="#65a30d" stroke-width="2.3"/><circle cx="90.00" cy="602.19" r="2.8" fill="#65a30d"><title>КАСКО урегулирование threshold 0.70: 1</title></circle><circle cx="124.40" cy="602.19" r="2.8" fill="#65a30d"><title>КАСКО урегулирование threshold 0.71: 1</title></circle><circle cx="158.80" cy="602.19" r="2.8" fill="#65a30d"><title>КАСКО урегулирование threshold 0.72: 1</title></circle><circle cx="193.20" cy="602.19" r="2.8" fill="#65a30d"><title>КАСКО урегулирование threshold 0.73: 1</title></circle><circle cx="227.60" cy="602.19" r="2.8" fill="#65a30d"><title>КАСКО урегулирование threshold 0.74: 1</title></circle><circle cx="262.00" cy="602.19" r="2.8" fill="#65a30d"><title>КАСКО урегулирование threshold 0.75: 1</title></circle><circle cx="296.40" cy="602.19" r="2.8" fill="#65a30d"><title>КАСКО урегулирование threshold 0.76: 1</title></circle><circle cx="330.80" cy="602.19" r="2.8" fill="#65a30d"><title>КАСКО урегулирование threshold 0.77: 1</title></circle><circle cx="365.20" cy="602.19" r="2.8" fill="#65a30d"><title>КАСКО урегулирование threshold 0.78: 1</title></circle><circle cx="399.60" cy="602.19" r="2.8" fill="#65a30d"><title>КАСКО урегулирование threshold 0.79: 1</title></circle><circle cx="434.00" cy="602.19" r="2.8" fill="#65a30d"><title>КАСКО урегулирование threshold 0.80: 1</title></circle><circle cx="468.40" cy="602.19" r="2.8" fill="#65a30d"><title>КАСКО урегулирование threshold 0.81: 1</title></circle><circle cx="502.80" cy="602.19" r="2.8" fill="#65a30d"><title>КАСКО урегулирование threshold 0.82: 1</title></circle><circle cx="537.20" cy="602.19" r="2.8" fill="#65a30d"><title>КАСКО урегулирование threshold 0.83: 1</title></circle><circle cx="571.60" cy="602.19" r="2.8" fill="#65a30d"><title>КАСКО урегулирование threshold 0.84: 1</title></circle><circle cx="606.00" cy="602.19" r="2.8" fill="#65a30d"><title>КАСКО урегулирование threshold 0.85: 1</title></circle><circle cx="640.40" cy="602.19" r="2.8" fill="#65a30d"><title>КАСКО урегулирование threshold 0.86: 1</title></circle><circle cx="674.80" cy="602.19" r="2.8" fill="#65a30d"><title>КАСКО урегулирование threshold 0.87: 1</title></circle><circle cx="709.20" cy="602.19" r="2.8" fill="#65a30d"><title>КАСКО урегулирование threshold 0.88: 1</title></circle><circle cx="743.60" cy="602.19" r="2.8" fill="#65a30d"><title>КАСКО урегулирование threshold 0.89: 1</title></circle><circle cx="778.00" cy="602.19" r="2.8" fill="#65a30d"><title>КАСКО урегулирование threshold 0.90: 1</title></circle><circle cx="812.40" cy="602.19" r="2.8" fill="#65a30d"><title>КАСКО урегулирование threshold 0.91: 1</title></circle><circle cx="846.80" cy="602.19" r="2.8" fill="#65a30d"><title>КАСКО урегулирование threshold 0.92: 1</title></circle><circle cx="881.20" cy="602.19" r="2.8" fill="#65a30d"><title>КАСКО урегулирование threshold 0.93: 1</title></circle><circle cx="915.60" cy="602.19" r="2.8" fill="#65a30d"><title>КАСКО урегулирование threshold 0.94: 1</title></circle><circle cx="950.00" cy="602.19" r="2.8" fill="#65a30d"><title>КАСКО урегулирование threshold 0.95: 1</title></circle>
<text x="980" y="70" font-size="15" font-weight="700" fill="#111827">Тематики</text>
<line x1="988" y1="95" x2="1016" y2="95" stroke="#2563eb" stroke-width="3"/><text x="1026" y="100" font-size="14" fill="#111827">ВЗР изменения</text><line x1="988" y1="127" x2="1016" y2="127" stroke="#dc2626" stroke-width="3"/><text x="1026" y="132" font-size="14" fill="#111827">ВЗР оформление</text><line x1="988" y1="159" x2="1016" y2="159" stroke="#16a34a" stroke-width="3"/><text x="1026" y="164" font-size="14" fill="#111827">ВЗР пролонгации</text><line x1="988" y1="191" x2="1016" y2="191" stroke="#9333ea" stroke-width="3"/><text x="1026" y="196" font-size="14" fill="#111827">ВЗР расторжения</text><line x1="988" y1="223" x2="1016" y2="223" stroke="#ea580c" stroke-width="3"/><text x="1026" y="228" font-size="14" fill="#111827">ВЗР урегулирование</text><line x1="988" y1="255" x2="1016" y2="255" stroke="#0891b2" stroke-width="3"/><text x="1026" y="260" font-size="14" fill="#111827">КАСКО оформление</text><line x1="988" y1="287" x2="1016" y2="287" stroke="#be123c" stroke-width="3"/><text x="1026" y="292" font-size="14" fill="#111827">КАСКО пролонгации</text><line x1="988" y1="319" x2="1016" y2="319" stroke="#4f46e5" stroke-width="3"/><text x="1026" y="324" font-size="14" fill="#111827">КАСКО расторжение</text><line x1="988" y1="351" x2="1016" y2="351" stroke="#65a30d" stroke-width="3"/><text x="1026" y="356" font-size="14" fill="#111827">КАСКО урегулирование</text>
</svg>