<svg xmlns="http://www.w3.org/2000/svg" width="1280" height="760" viewBox="0 0 1280 760">
<style>text{font-family:Arial, sans-serif} .title{font-weight:700;font-size:24px}</style>
<rect width="100%" height="100%" fill="white"/>
<text class="title" x="90" y="38">Coverage по всем тематикам от p_correct</text>
<text x="90" y="732" font-size="13" fill="#374151">p_correct threshold</text>
<text transform="translate(24 375.0) rotate(-90)" font-size="13" fill="#374151">coverage</text>
<line x1="90" y1="680.00" x2="950" y2="680.00" stroke="#e5e7eb"/><text x="80" y="684.00" text-anchor="end" font-size="12" fill="#374151">0%</text><line x1="90" y1="558.00" x2="950" y2="558.00" stroke="#e5e7eb"/><text x="80" y="562.00" text-anchor="end" font-size="12" fill="#374151">15%</text><line x1="90" y1="436.00" x2="950" y2="436.00" stroke="#e5e7eb"/><text x="80" y="440.00" text-anchor="end" font-size="12" fill="#374151">31%</text><line x1="90" y1="314.00" x2="950" y2="314.00" stroke="#e5e7eb"/><text x="80" y="318.00" text-anchor="end" font-size="12" fill="#374151">46%</text><line x1="90" y1="192.00" x2="950" y2="192.00" stroke="#e5e7eb"/><text x="80" y="196.00" text-anchor="end" font-size="12" fill="#374151">62%</text><line x1="90" y1="70.00" x2="950" y2="70.00" stroke="#e5e7eb"/><text x="80" y="74.00" text-anchor="end" font-size="12" fill="#374151">77%</text><line x1="90.00" y1="70" x2="90.00" y2="680" stroke="#f3f4f6"/><text x="90.00" y="704" text-anchor="middle" font-size="12" fill="#374151">0.70</text><line x1="262.00" y1="70" x2="262.00" y2="680" stroke="#f3f4f6"/><text x="262.00" y="704" text-anchor="middle" font-size="12" fill="#374151">0.75</text><line x1="434.00" y1="70" x2="434.00" y2="680" stroke="#f3f4f6"/><text x="434.00" y="704" text-anchor="middle" font-size="12" fill="#374151">0.80</text><line x1="606.00" y1="70" x2="606.00" y2="680" stroke="#f3f4f6"/><text x="606.00" y="704" text-anchor="middle" font-size="12" fill="#374151">0.85</text><line x1="778.00" y1="70" x2="778.00" y2="680" stroke="#f3f4f6"/><text x="778.00" y="704" text-anchor="middle" font-size="12" fill="#374151">0.90</text><line x1="950.00" y1="70" x2="950.00" y2="680" stroke="#f3f4f6"/><text x="950.00" y="704" text-anchor="middle" font-size="12" fill="#374151">0.95</text>
<line x1="90" y1="70" x2="90" y2="680" stroke="#111827"/>
<line x1="90" y1="680" x2="950" y2="680" stroke="#111827"/>
<polyline points="90.00,348.90 124.40,368.38 158.80,368.38 193.20,387.85 227.60,387.85 262.00,417.07 296.40,426.81 330.80,436.55 365.20,436.55 399.60,456.02 434.00,485.24 468.40,504.71 502.80,533.93 537.20,563.14 571.60,602.09 606.00,611.83 640.40,611.83 674.80,611.83 709.20,621.57 743.60,621.57 778.00,621.57 812.40,660.52 846.80,680.00 881.20,680.00 915.60,680.00 950.00,680.00" fill="none" stroke="#2563eb" stroke-width="2.3"/><circle cx="90.00" cy="348.90" r="2.8" fill="#2563eb"><title>ВЗР изменения threshold 0.70: 42%</title></circle><circle cx="124.40" cy="368.38" r="2.8" fill="#2563eb"><title>ВЗР изменения threshold 0.71: 40%</title></circle><circle cx="158.80" cy="368.38" r="2.8" fill="#2563eb"><title>ВЗР изменения threshold 0.72: 40%</title></circle><circle cx="193.20" cy="387.85" r="2.8" fill="#2563eb"><title>ВЗР изменения threshold 0.73: 37%</title></circle><circle cx="227.60" cy="387.85" r="2.8" fill="#2563eb"><title>ВЗР изменения threshold 0.74: 37%</title></circle><circle cx="262.00" cy="417.07" r="2.8" fill="#2563eb"><title>ВЗР изменения threshold 0.75: 33%</title></circle><circle cx="296.40" cy="426.81" r="2.8" fill="#2563eb"><title>ВЗР изменения threshold 0.76: 32%</title></circle><circle cx="330.80" cy="436.55" r="2.8" fill="#2563eb"><title>ВЗР изменения threshold 0.77: 31%</title></circle><circle cx="365.20" cy="436.55" r="2.8" fill="#2563eb"><title>ВЗР изменения threshold 0.78: 31%</title></circle><circle cx="399.60" cy="456.02" r="2.8" fill="#2563eb"><title>ВЗР изменения threshold 0.79: 28%</title></circle><circle cx="434.00" cy="485.24" r="2.8" fill="#2563eb"><title>ВЗР изменения threshold 0.80: 25%</title></circle><circle cx="468.40" cy="504.71" r="2.8" fill="#2563eb"><title>ВЗР изменения threshold 0.81: 22%</title></circle><circle cx="502.80" cy="533.93" r="2.8" fill="#2563eb"><title>ВЗР изменения threshold 0.82: 19%</title></circle><circle cx="537.20" cy="563.14" r="2.8" fill="#2563eb"><title>ВЗР изменения threshold 0.83: 15%</title></circle><circle cx="571.60" cy="602.09" r="2.8" fill="#2563eb"><title>ВЗР изменения threshold 0.84: 10%</title></circle><circle cx="606.00" cy="611.83" r="2.8" fill="#2563eb"><title>ВЗР изменения threshold 0.85: 9%</title></circle><circle cx="640.40" cy="611.83" r="2.8" fill="#2563eb"><title>ВЗР изменения threshold 0.86: 9%</title></circle><circle cx="674.80" cy="611.83" r="2.8" fill="#2563eb"><title>ВЗР изменения threshold 0.87: 9%</title></circle><circle cx="709.20" cy="621.57" r="2.8" fill="#2563eb"><title>ВЗР изменения threshold 0.88: 7%</title></circle><circle cx="743.60" cy="621.57" r="2.8" fill="#2563eb"><title>ВЗР изменения threshold 0.89: 7%</title></circle><circle cx="778.00" cy="621.57" r="2.8" fill="#2563eb"><title>ВЗР изменения threshold 0.90: 7%</title></circle><circle cx="812.40" cy="660.52" r="2.8" fill="#2563eb"><title>ВЗР изменения threshold 0.91: 2%</title></circle><circle cx="846.80" cy="680.00" r="2.8" fill="#2563eb"><title>ВЗР изменения threshold 0.92: 0%</title></circle><circle cx="881.20" cy="680.00" r="2.8" fill="#2563eb"><title>ВЗР изменения threshold 0.93: 0%</title></circle><circle cx="915.60" cy="680.00" r="2.8" fill="#2563eb"><title>ВЗР изменения threshold 0.94: 0%</title></circle><circle cx="950.00" cy="680.00" r="2.8" fill="#2563eb"><title>ВЗР изменения threshold 0.95: 0%</title></circle><polyline points="90.00,101.55 124.40,110.32 158.80,136.61 193.20,145.37 227.60,162.90 262.00,171.67 296.40,180.43 330.80,180.43 365.20,189.20 399.60,189.20 434.00,197.96 468.40,215.49 502.80,294.37 537.20,346.95 571.60,364.48 606.00,373.25 640.40,382.01 674.80,399.54 709.20,417.07 743.60,443.36 778.00,443.36 812.40,452.13 846.80,504.71 881.20,504.71 915.60,504.71 950.00,504.71" fill="none" stroke="#dc2626" stroke-width="2.3"/><circle cx="90.00" cy="101.55" r="2.8" fill="#dc2626"><title>ВЗР оформление threshold 0.70: 73%</title></circle><circle cx="124.40" cy="110.32" r="2.8" fill="#dc2626"><title>ВЗР оформление threshold 0.71: 72%</title></circle><circle cx="158.80" cy="136.61" r="2.8" fill="#dc2626"><title>ВЗР оформление threshold 0.72: 69%</title></circle><circle cx="193.20" cy="145.37" r="2.8" fill="#dc2626"><title>ВЗР оформление threshold 0.73: 68%</title></circle><circle cx="227.60" cy="162.90" r="2.8" fill="#dc2626"><title>ВЗР оформление threshold 0.74: 66%</title></circle><circle cx="262.00" cy="171.67" r="2.8" fill="#dc2626"><title>ВЗР оформление threshold 0.75: 64%</title></circle><circle cx="296.40" cy="180.43" r="2.8" fill="#dc2626"><title>ВЗР оформление threshold 0.76: 63%</title></circle><circle cx="330.80" cy="180.43" r="2.8" fill="#dc2626"><title>ВЗР оформление threshold 0.77: 63%</title></circle><circle cx="365.20" cy="189.20" r="2.8" fill="#dc2626"><title>ВЗР оформление threshold 0.78: 62%</title></circle><circle cx="399.60" cy="189.20" r="2.8" fill="#dc2626"><title>ВЗР оформление threshold 0.79: 62%</title></circle><circle cx="434.00" cy="197.96" r="2.8" fill="#dc2626"><title>ВЗР оформление threshold 0.80: 61%</title></circle><circle cx="468.40" cy="215.49" r="2.8" fill="#dc2626"><title>ВЗР оформление threshold 0.81: 59%</title></circle><circle cx="502.80" cy="294.37" r="2.8" fill="#dc2626"><title>ВЗР оформление threshold 0.82: 49%</title></circle><circle cx="537.20" cy="346.95" r="2.8" fill="#dc2626"><title>ВЗР оформление threshold 0.83: 42%</title></circle><circle cx="571.60" cy="364.48" r="2.8" fill="#dc2626"><title>ВЗР оформление threshold 0.84: 40%</title></circle><circle cx="606.00" cy="373.25" r="2.8" fill="#dc2626"><title>ВЗР оформление threshold 0.85: 39%</title></circle><circle cx="640.40" cy="382.01" r="2.8" fill="#dc2626"><title>ВЗР оформление threshold 0.86: 38%</title></circle><circle cx="674.80" cy="399.54" r="2.8" fill="#dc2626"><title>ВЗР оформление threshold 0.87: 36%</title></circle><circle cx="709.20" cy="417.07" r="2.8" fill="#dc2626"><title>ВЗР оформление threshold 0.88: 33%</title></circle><circle cx="743.60" cy="443.36" r="2.8" fill="#dc2626"><title>ВЗР оформление threshold 0.89: 30%</title></circle><circle cx="778.00" cy="443.36" r="2.8" fill="#dc2626"><title>ВЗР оформление threshold 0.90: 30%</title></circle><circle cx="812.40" cy="452.13" r="2.8" fill="#dc2626"><title>ВЗР оформление threshold 0.91: 29%</title></circle><circle cx="846.80" cy="504.71" r="2.8" fill="#dc2626"><title>ВЗР оформление threshold 0.92: 22%</title></circle><circle cx="881.20" cy="504.71" r="2.8" fill="#dc2626"><title>ВЗР оформление threshold 0.93: 22%</title></circle><circle cx="915.60" cy="504.71" r="2.8" fill="#dc2626"><title>ВЗР оформление threshold 0.94: 22%</title></circle><circle cx="950.00" cy="504.71" r="2.8" fill="#dc2626"><title>ВЗР оформление threshold 0.95: 22%</title></circle><polyline points="90.00,539.77 124.40,557.30 158.80,557.30 193.20,574.83 227.60,592.36 262.00,601.12 296.40,601.12 330.80,601.12 365.20,627.41 399.60,653.71 434.00,662.47 468.40,662.47 502.80,662.47 537.20,662.47 571.60,671.24 606.00,671.24 640.40,671.24 674.80,671.24 709.20,671.24 743.60,671.24 778.00,671.24 812.40,671.24 846.80,680.00 881.20,680.00 915.60,680.00 950.00,680.00" fill="none" stroke="#16a34a" stroke-width="2.3"/><circle cx="90.00" cy="539.77" r="2.8" fill="#16a34a"><title>ВЗР пролонгации threshold 0.70: 18%</title></circle><circle cx="124.40" cy="557.30" r="2.8" fill="#16a34a"><title>ВЗР пролонгации threshold 0.71: 16%</title></circle><circle cx="158.80" cy="557.30" r="2.8" fill="#16a34a"><title>ВЗР пролонгации threshold 0.72: 16%</title></circle><circle cx="193.20" cy="574.83" r="2.8" fill="#16a34a"><title>ВЗР пролонгации threshold 0.73: 13%</title></circle><circle cx="227.60" cy="592.36" r="2.8" fill="#16a34a"><title>ВЗР пролонгации threshold 0.74: 11%</title></circle><circle cx="262.00" cy="601.12" r="2.8" fill="#16a34a"><title>ВЗР пролонгации threshold 0.75: 10%</title></circle><circle cx="296.40" cy="601.12" r="2.8" fill="#16a34a"><title>ВЗР пролонгации threshold 0.76: 10%</title></circle><circle cx="330.80" cy="601.12" r="2.8" fill="#16a34a"><title>ВЗР пролонгации threshold 0.77: 10%</title></circle><circle cx="365.20" cy="627.41" r="2.8" fill="#16a34a"><title>ВЗР пролонгации threshold 0.78: 7%</title></circle><circle cx="399.60" cy="653.71" r="2.8" fill="#16a34a"><title>ВЗР пролонгации threshold 0.79: 3%</title></circle><circle cx="434.00" cy="662.47" r="2.8" fill="#16a34a"><title>ВЗР пролонгации threshold 0.80: 2%</title></circle><circle cx="468.40" cy="662.47" r="2.8" fill="#16a34a"><title>ВЗР пролонгации threshold 0.81: 2%</title></circle><circle cx="502.80" cy="662.47" r="2.8" fill="#16a34a"><title>ВЗР пролонгации threshold 0.82: 2%</title></circle><circle cx="537.20" cy="662.47" r="2.8" fill="#16a34a"><title>ВЗР пролонгации threshold 0.83: 2%</title></circle><circle cx="571.60" cy="671.24" r="2.8" fill="#16a34a"><title>ВЗР пролонгации threshold 0.84: 1%</title></circle><circle cx="606.00" cy="671.24" r="2.8" fill="#16a34a"><title>ВЗР пролонгации threshold 0.85: 1%</title></circle><circle cx="640.40" cy="671.24" r="2.8" fill="#16a34a"><title>ВЗР пролонгации threshold 0.86: 1%</title></circle><circle cx="674.80" cy="671.24" r="2.8" fill="#16a34a"><title>ВЗР пролонгации threshold 0.87: 1%</title></circle><circle cx="709.20" cy="671.24" r="2.8" fill="#16a34a"><title>ВЗР пролонгации threshold 0.88: 1%</title></circle><circle cx="743.60" cy="671.24" r="2.8" fill="#16a34a"><title>ВЗР пролонгации threshold 0.89: 1%</title></circle><circle cx="778.00" cy="671.24" r="2.8" fill="#16a34a"><title>ВЗР пролонгации threshold 0.90: 1%</title></circle><circle cx="812.40" cy="671.24" r="2.8" fill="#16a34a"><title>ВЗР пролонгации threshold 0.91: 1%</title></circle><circle cx="846.80" cy="680.00" r="2.8" fill="#16a34a"><title>ВЗР пролонгации threshold 0.92: 0%</title></circle><circle cx="881.20" cy="680.00" r="2.8" fill="#16a34a"><title>ВЗР пролонгации threshold 0.93: 0%</title></circle><circle cx="915.60" cy="680.00" r="2.8" fill="#16a34a"><title>ВЗР пролонгации threshold 0.94: 0%</title></circle><circle cx="950.00" cy="680.00" r="2.8" fill="#16a34a"><title>ВЗР пролонгации threshold 0.95: 0%</title></circle><polyline points="90.00,127.84 124.40,127.84 158.80,161.65 193.20,161.65 227.60,172.92 262.00,263.07 296.40,285.60 330.80,308.14 365.20,319.41 399.60,341.95 434.00,353.21 468.40,387.02 502.80,465.90 537.20,510.97 571.60,533.51 606.00,533.51 640.40,533.51 674.80,567.32 709.20,612.39 743.60,668.73 778.00,668.73 812.40,668.73 846.80,668.73 881.20,668.73 915.60,668.73 950.00,680.00" fill="none" stroke="#9333ea" stroke-width="2.3"/><circle cx="90.00" cy="127.84" r="2.8" fill="#9333ea"><title>ВЗР расторжения threshold 0.70: 70%</title></circle><circle cx="124.40" cy="127.84" r="2.8" fill="#9333ea"><title>ВЗР расторжения threshold 0.71: 70%</title></circle><circle cx="158.80" cy="161.65" r="2.8" fill="#9333ea"><title>ВЗР расторжения threshold 0.72: 66%</title></circle><circle cx="193.20" cy="161.65" r="2.8" fill="#9333ea"><title>ВЗР расторжения threshold 0.73: 66%</title></circle><circle cx="227.60" cy="172.92" r="2.8" fill="#9333ea"><title>ВЗР расторжения threshold 0.74: 64%</title></circle><circle cx="262.00" cy="263.07" r="2.8" fill="#9333ea"><title>ВЗР расторжения threshold 0.75: 53%</title></circle><circle cx="296.40" cy="285.60" r="2.8" fill="#9333ea"><title>ВЗР расторжения threshold 0.76: 50%</title></circle><circle cx="330.80" cy="308.14" r="2.8" fill="#9333ea"><title>ВЗР расторжения threshold 0.77: 47%</title></circle><circle cx="365.20" cy="319.41" r="2.8" fill="#9333ea"><title>ВЗР расторжения threshold 0.78: 46%</title></circle><circle cx="399.60" cy="341.95" r="2.8" fill="#9333ea"><title>ВЗР расторжения threshold 0.79: 43%</title></circle><circle cx="434.00" cy="353.21" r="2.8" fill="#9333ea"><title>ВЗР расторжения threshold 0.80: 41%</title></circle><circle cx="468.40" cy="387.02" r="2.8" fill="#9333ea"><title>ВЗР расторжения threshold 0.81: 37%</title></circle><circle cx="502.80" cy="465.90" r="2.8" fill="#9333ea"><title>ВЗР расторжения threshold 0.82: 27%</title></circle><circle cx="537.20" cy="510.97" r="2.8" fill="#9333ea"><title>ВЗР расторжения threshold 0.83: 21%</title></circle><circle cx="571.60" cy="533.51" r="2.8" fill="#9333ea"><title>ВЗР расторжения threshold 0.84: 19%</title></circle><circle cx="606.00" cy="533.51" r="2.8" fill="#9333ea"><title>ВЗР расторжения threshold 0.85: 19%</title></circle><circle cx="640.40" cy="533.51" r="2.8" fill="#9333ea"><title>ВЗР расторжения threshold 0.86: 19%</title></circle><circle cx="674.80" cy="567.32" r="2.8" fill="#9333ea"><title>ВЗР расторжения threshold 0.87: 14%</title></circle><circle cx="709.20" cy="612.39" r="2.8" fill="#9333ea"><title>ВЗР расторжения threshold 0.88: 9%</title></circle><circle cx="743.60" cy="668.73" r="2.8" fill="#9333ea"><title>ВЗР расторжения threshold 0.89: 1%</title></circle><circle cx="778.00" cy="668.73" r="2.8" fill="#9333ea"><title>ВЗР расторжения threshold 0.90: 1%</title></circle><circle cx="812.40" cy="668.73" r="2.8" fill="#9333ea"><title>ВЗР расторжения threshold 0.91: 1%</title></circle><circle cx="846.80" cy="668.73" r="2.8" fill="#9333ea"><title>ВЗР расторжения threshold 0.92: 1%</title></circle><circle cx="881.20" cy="668.73" r="2.8" fill="#9333ea"><title>ВЗР расторжения threshold 0.93: 1%</title></circle><circle cx="915.60" cy="668.73" r="2.8" fill="#9333ea"><title>ВЗР расторжения threshold 0.94: 1%</title></circle><circle cx="950.00" cy="680.00" r="2.8" fill="#9333ea"><title>ВЗР расторжения threshold 0.95: 0%</title></circle><polyline points="90.00,492.56 124.40,508.18 158.80,531.61 193.20,547.23 227.60,570.66 262.00,570.66 296.40,570.66 330.80,586.28 365.20,617.52 399.60,633.14 434.00,656.57 468.40,656.57 502.80,656.57 537.20,656.57 571.60,664.38 606.00,672.19 640.40,680.00 674.80,680.00 709.20,680.00 743.60,680.00 778.00,680.00 812.40,680.00 846.80,680.00 881.20,680.00 915.60,680.00 950.00,680.00" fill="none" stroke="#ea580c" stroke-width="2.3"/><circle cx="90.00" cy="492.56" r="2.8" fill="#ea580c"><title>ВЗР урегулирование threshold 0.70: 24%</title></circle><circle cx="124.40" cy="508.18" r="2.8" fill="#ea580c"><title>ВЗР урегулирование threshold 0.71: 22%</title></circle><circle cx="158.80" cy="531.61" r="2.8" fill="#ea580c"><title>ВЗР урегулирование threshold 0.72: 19%</title></circle><circle cx="193.20" cy="547.23" r="2.8" fill="#ea580c"><title>ВЗР урегулирование threshold 0.73: 17%</title></circle><circle cx="227.60" cy="570.66" r="2.8" fill="#ea580c"><title>ВЗР урегулирование threshold 0.74: 14%</title></circle><circle cx="262.00" cy="570.66" r="2.8" fill="#ea580c"><title>ВЗР урегулирование threshold 0.75: 14%</title></circle><circle cx="296.40" cy="570.66" r="2.8" fill="#ea580c"><title>ВЗР урегулирование threshold 0.76: 14%</title></circle><circle cx="330.80" cy="586.28" r="2.8" fill="#ea580c"><title>ВЗР урегулирование threshold 0.77: 12%</title></circle><circle cx="365.20" cy="617.52" r="2.8" fill="#ea580c"><title>ВЗР урегулирование threshold 0.78: 8%</title></circle><circle cx="399.60" cy="633.14" r="2.8" fill="#ea580c"><title>ВЗР урегулирование threshold 0.79: 6%</title></circle><circle cx="434.00" cy="656.57" r="2.8" fill="#ea580c"><title>ВЗР урегулирование threshold 0.80: 3%</title></circle><circle cx="468.40" cy="656.57" r="2.8" fill="#ea580c"><title>ВЗР урегулирование threshold 0.81: 3%</title></circle><circle cx="502.80" cy="656.57" r="2.8" fill="#ea580c"><title>ВЗР урегулирование threshold 0.82: 3%</title></circle><circle cx="537.20" cy="656.57" r="2.8" fill="#ea580c"><title>ВЗР урегулирование threshold 0.83: 3%</title></circle><circle cx="571.60" cy="664.38" r="2.8" fill="#ea580c"><title>ВЗР урегулирование threshold 0.84: 2%</title></circle><circle cx="606.00" cy="672.19" r="2.8" fill="#ea580c"><title>ВЗР урегулирование threshold 0.85: 1%</title></circle><circle cx="640.40" cy="680.00" r="2.8" fill="#ea580c"><title>ВЗР урегулирование threshold 0.86: 0%</title></circle><circle cx="674.80" cy="680.00" r="2.8" fill="#ea580c"><title>ВЗР урегулирование threshold 0.87: 0%</title></circle><circle cx="709.20" cy="680.00" r="2.8" fill="#ea580c"><title>ВЗР урегулирование threshold 0.88: 0%</title></circle><circle cx="743.60" cy="680.00" r="2.8" fill="#ea580c"><title>ВЗР урегулирование threshold 0.89: 0%</title></circle><circle cx="778.00" cy="680.00" r="2.8" fill="#ea580c"><title>ВЗР урегулирование threshold 0.90: 0%</title></circle><circle cx="812.40" cy="680.00" r="2.8" fill="#ea580c"><title>ВЗР урегулирование threshold 0.91: 0%</title></circle><circle cx="846.80" cy="680.00" r="2.8" fill="#ea580c"><title>ВЗР урегулирование threshold 0.92: 0%</title></circle><circle cx="881.20" cy="680.00" r="2.8" fill="#ea580c"><title>ВЗР урегулирование threshold 0.93: 0%</title></circle><circle cx="915.60" cy="680.00" r="2.8" fill="#ea580c"><title>ВЗР урегулирование threshold 0.94: 0%</title></circle><circle cx="950.00" cy="680.00" r="2.8" fill="#ea580c"><title>ВЗР урегулирование threshold 0.95: 0%</title></circle><polyline points="90.00,299.44 124.40,313.28 158.80,340.96 193.20,347.88 227.60,354.80 262.00,375.55 296.40,417.07 330.80,437.83 365.20,444.75 399.60,458.58 434.00,486.26 468.40,527.78 502.80,562.37 537.20,562.37 571.60,596.97 606.00,624.65 640.40,638.48 674.80,652.32 709.20,659.24 743.60,659.24 778.00,659.24 812.40,659.24 846.80,659.24 881.20,666.16 915.60,666.16 950.00,666.16" fill="none" stroke="#0891b2" stroke-width="2.3"/><circle cx="90.00" cy="299.44" r="2.8" fill="#0891b2"><title>КАСКО оформление threshold 0.70: 48%</title></circle><circle cx="124.40" cy="313.28" r="2.8" fill="#0891b2"><title>КАСКО оформление threshold 0.71: 46%</title></circle><circle cx="158.80" cy="340.96" r="2.8" fill="#0891b2"><title>КАСКО оформление threshold 0.72: 43%</title></circle><circle cx="193.20" cy="347.88" r="2.8" fill="#0891b2"><title>КАСКО оформление threshold 0.73: 42%</title></circle><circle cx="227.60" cy="354.80" r="2.8" fill="#0891b2"><title>КАСКО оформление threshold 0.74: 41%</title></circle><circle cx="262.00" cy="375.55" r="2.8" fill="#0891b2"><title>КАСКО оформление threshold 0.75: 39%</title></circle><circle cx="296.40" cy="417.07" r="2.8" fill="#0891b2"><title>КАСКО оформление threshold 0.76: 33%</title></circle><circle cx="330.80" cy="437.83" r="2.8" fill="#0891b2"><title>КАСКО оформление threshold 0.77: 31%</title></circle><circle cx="365.20" cy="444.75" r="2.8" fill="#0891b2"><title>КАСКО оформление threshold 0.78: 30%</title></circle><circle cx="399.60" cy="458.58" r="2.8" fill="#0891b2"><title>КАСКО оформление threshold 0.79: 28%</title></circle><circle cx="434.00" cy="486.26" r="2.8" fill="#0891b2"><title>КАСКО оформление threshold 0.80: 25%</title></circle><circle cx="468.40" cy="527.78" r="2.8" fill="#0891b2"><title>КАСКО оформление threshold 0.81: 19%</title></circle><circle cx="502.80" cy="562.37" r="2.8" fill="#0891b2"><title>КАСКО оформление threshold 0.82: 15%</title></circle><circle cx="537.20" cy="562.37" r="2.8" fill="#0891b2"><title>КАСКО оформление threshold 0.83: 15%</title></circle><circle cx="571.60" cy="596.97" r="2.8" fill="#0891b2"><title>КАСКО оформление threshold 0.84: 11%</title></circle><circle cx="606.00" cy="624.65" r="2.8" fill="#0891b2"><title>КАСКО оформление threshold 0.85: 7%</title></circle><circle cx="640.40" cy="638.48" r="2.8" fill="#0891b2"><title>КАСКО оформление threshold 0.86: 5%</title></circle><circle cx="674.80" cy="652.32" r="2.8" fill="#0891b2"><title>КАСКО оформление threshold 0.87: 4%</title></circle><circle cx="709.20" cy="659.24" r="2.8" fill="#0891b2"><title>КАСКО оформление threshold 0.88: 3%</title></circle><circle cx="743.60" cy="659.24" r="2.8" fill="#0891b2"><title>КАСКО оформление threshold 0.89: 3%</title></circle><circle cx="778.00" cy="659.24" r="2.8" fill="#0891b2"><title>КАСКО оформление threshold 0.90: 3%</title></circle><circle cx="812.40" cy="659.24" r="2.8" fill="#0891b2"><title>КАСКО оформление threshold 0.91: 3%</title></circle><circle cx="846.80" cy="659.24" r="2.8" fill="#0891b2"><title>КАСКО оформление threshold 0.92: 3%</title></circle><circle cx="881.20" cy="666.16" r="2.8" fill="#0891b2"><title>КАСКО оформление threshold 0.93: 2%</title></circle><circle cx="915.60" cy="666.16" r="2.8" fill="#0891b2"><title>КАСКО оформление threshold 0.94: 2%</title></circle><circle cx="950.00" cy="666.16" r="2.8" fill="#0891b2"><title>КАСКО оформление threshold 0.95: 2%</title></circle><polyline points="90.00,345.92 124.40,383.04 158.80,401.60 193.20,429.44 227.60,448.00 262.00,475.84 296.40,512.96 330.80,522.24 365.20,522.24 399.60,531.52 434.00,531.52 468.40,531.52 502.80,531.52 537.20,531.52 571.60,531.52 606.00,540.80 640.40,540.80 674.80,550.08 709.20,550.08 743.60,550.08 778.00,550.08 812.40,559.36 846.80,605.76 881.20,624.32 915.60,642.88 950.00,661.44" fill="none" stroke="#be123c" stroke-width="2.3"/><circle cx="90.00" cy="345.92" r="2.8" fill="#be123c"><title>КАСКО пролонгации threshold 0.70: 42%</title></circle><circle cx="124.40" cy="383.04" r="2.8" fill="#be123c"><title>КАСКО пролонгации threshold 0.71: 38%</title></circle><circle cx="158.80" cy="401.60" r="2.8" fill="#be123c"><title>КАСКО пролонгации threshold 0.72: 35%</title></circle><circle cx="193.20" cy="429.44" r="2.8" fill="#be123c"><title>КАСКО пролонгации threshold 0.73: 32%</title></circle><circle cx="227.60" cy="448.00" r="2.8" fill="#be123c"><title>КАСКО пролонгации threshold 0.74: 29%</title></circle><circle cx="262.00" cy="475.84" r="2.8" fill="#be123c"><title>КАСКО пролонгации threshold 0.75: 26%</title></circle><circle cx="296.40" cy="512.96" r="2.8" fill="#be123c"><title>КАСКО пролонгации threshold 0.76: 21%</title></circle><circle cx="330.80" cy="522.24" r="2.8" fill="#be123c"><title>КАСКО пролонгации threshold 0.77: 20%</title></circle><circle cx="365.20" cy="522.24" r="2.8" fill="#be123c"><title>КАСКО пролонгации threshold 0.78: 20%</title></circle><circle cx="399.60" cy="531.52" r="2.8" fill="#be123c"><title>КАСКО пролонгации threshold 0.79: 19%</title></circle><circle cx="434.00" cy="531.52" r="2.8" fill="#be123c"><title>КАСКО пролонгации threshold 0.80: 19%</title></circle><circle cx="468.40" cy="531.52" r="2.8" fill="#be123c"><title>КАСКО пролонгации threshold 0.81: 19%</title></circle><circle cx="502.80" cy="531.52" r="2.8" fill="#be123c"><title>КАСКО пролонгации threshold 0.82: 19%</title></circle><circle cx="537.20" cy="531.52" r="2.8" fill="#be123c"><title>КАСКО пролонгации threshold 0.83: 19%</title></circle><circle cx="571.60" cy="531.52" r="2.8" fill="#be123c"><title>КАСКО пролонгации threshold 0.84: 19%</title></circle><circle cx="606.00" cy="540.80" r="2.8" fill="#be123c"><title>КАСКО пролонгации threshold 0.85: 18%</title></circle><circle cx="640.40" cy="540.80" r="2.8" fill="#be123c"><title>КАСКО пролонгации threshold 0.86: 18%</title></circle><circle cx="674.80" cy="550.08" r="2.8" fill="#be123c"><title>КАСКО пролонгации threshold 0.87: 16%</title></circle><circle cx="709.20" cy="550.08" r="2.8" fill="#be123c"><title>КАСКО пролонгации threshold 0.88: 16%</title></circle><circle cx="743.60" cy="550.08" r="2.8" fill="#be123c"><title>КАСКО пролонгации threshold 0.89: 16%</title></circle><circle cx="778.00" cy="550.08" r="2.8" fill="#be123c"><title>КАСКО пролонгации threshold 0.90: 16%</title></circle><circle cx="812.40" cy="559.36" r="2.8" fill="#be123c"><title>КАСКО пролонгации threshold 0.91: 15%</title></circle><circle cx="846.80" cy="605.76" r="2.8" fill="#be123c"><title>КАСКО пролонгации threshold 0.92: 9%</title></circle><circle cx="881.20" cy="624.32" r="2.8" fill="#be123c"><title>КАСКО пролонгации threshold 0.93: 7%</title></circle><circle cx="915.60" cy="642.88" r="2.8" fill="#be123c"><title>КАСКО пролонгации threshold 0.94: 5%</title></circle><circle cx="950.00" cy="661.44" r="2.8" fill="#be123c"><title>КАСКО пролонгации threshold 0.95: 2%</title></circle><polyline points="90.00,423.18 124.40,423.18 158.80,423.18 193.20,423.18 227.60,423.18 262.00,423.18 296.40,423.18 330.80,423.18 365.20,423.18 399.60,423.18 434.00,423.18 468.40,423.18 502.80,423.18 537.20,423.18 571.60,423.18 606.00,423.18 640.40,423.18 674.80,423.18 709.20,423.18 743.60,423.18 778.00,423.18 812.40,423.18 846.80,423.18 881.20,423.18 915.60,423.18 950.00,423.18" fill="none" stroke="#4f46e5" stroke-width="2.3"/><circle cx="90.00" cy="423.18" r="2.8" fill="#4f46e5"><title>КАСКО расторжение threshold 0.70: 33%</title></circle><circle cx="124.40" cy="423.18" r="2.8" fill="#4f46e5"><title>КАСКО расторжение threshold 0.71: 33%</title></circle><circle cx="158.80" cy="423.18" r="2.8" fill="#4f46e5"><title>КАСКО расторжение threshold 0.72: 33%</title></circle><circle cx="193.20" cy="423.18" r="2.8" fill="#4f46e5"><title>КАСКО расторжение threshold 0.73: 33%</title></circle><circle cx="227.60" cy="423.18" r="2.8" fill="#4f46e5"><title>КАСКО расторжение threshold 0.74: 33%</title></circle><circle cx="262.00" cy="423.18" r="2.8" fill="#4f46e5"><title>КАСКО расторжение threshold 0.75: 33%</title></circle><circle cx="296.40" cy="423.18" r="2.8" fill="#4f46e5"><title>КАСКО расторжение threshold 0.76: 33%</title></circle><circle cx="330.80" cy="423.18" r="2.8" fill="#4f46e5"><title>КАСКО расторжение threshold 0.77: 33%</title></circle><circle cx="365.20" cy="423.18" r="2.8" fill="#4f46e5"><title>КАСКО расторжение threshold 0.78: 33%</title></circle><circle cx="399.60" cy="423.18" r="2.8" fill="#4f46e5"><title>КАСКО расторжение threshold 0.79: 33%</title></circle><circle cx="434.00" cy="423.18" r="2.8" fill="#4f46e5"><title>КАСКО расторжение threshold 0.80: 33%</title></circle><circle cx="468.40" cy="423.18" r="2.8" fill="#4f46e5"><title>КАСКО расторжение threshold 0.81: 33%</title></circle><circle cx="502.80" cy="423.18" r="2.8" fill="#4f46e5"><title>КАСКО расторжение threshold 0.82: 33%</title></circle><circle cx="537.20" cy="423.18" r="2.8" fill="#4f46e5"><title>КАСКО расторжение threshold 0.83: 33%</title></circle><circle cx="571.60" cy="423.18" r="2.8" fill="#4f46e5"><title>КАСКО расторжение threshold 0.84: 33%</title></circle><circle cx="606.00" cy="423.18" r="2.8" fill="#4f46e5"><title>КАСКО расторжение threshold 0.85: 33%</title></circle><circle cx="640.40" cy="423.18" r="2.8" fill="#4f46e5"><title>КАСКО расторжение threshold 0.86: 33%</title></circle><circle cx="674.80" cy="423.18" r="2.8" fill="#4f46e5"><title>КАСКО расторжение threshold 0.87: 33%</title></circle><circle cx="709.20" cy="423.18" r="2.8" fill="#4f46e5"><title>КАСКО расторжение threshold 0.88: 33%</title></circle><circle cx="743.60" cy="423.18" r="2.8" fill="#4f46e5"><title>КАСКО расторжение threshold 0.89: 33%</title></circle><circle cx="778.00" cy="423.18" r="2.8" fill="#4f46e5"><title>КАСКО расторжение threshold 0.90: 33%</title></circle><circle cx="812.40" cy="423.18" r="2.8" fill="#4f46e5"><title>КАСКО расторжение threshold 0.91: 33%</title></circle><circle cx="846.80" cy="423.18" r="2.8" fill="#4f46e5"><title>КАСКО расторжение threshold 0.92: 33%</title></circle><circle cx="881.20" cy="423.18" r="2.8" fill="#4f46e5"><title>КАСКО расторжение threshold 0.93: 33%</title></circle><circle cx="915.60" cy="423.18" r="2.8" fill="#4f46e5"><title>КАСКО расторжение threshold 0.94: 33%</title></circle><circle cx="950.00" cy="423.18" r="2.8" fill="#4f46e5"><title>КАСКО расторжение threshold 0.95: 33%</title></circle><polyline points="90.00,417.07 124.40,417.07 158.80,443.36 193.20,469.66 227.60,482.80 262.00,535.39 296.40,535.39 330.80,548.53 365.20,548.53 399.60,548.53 434.00,548.53 468.40,548.53 502.80,548.53 537.20,548.53 571.60,548.53 606.00,548.53 640.40,548.53 674.80,548.53 709.20,548.53 743.60,548.53 778.00,548.53 812.40,548.53 846.80,548.53 881.20,548.53 915.60,548.53 950.00,548.53" fill="none" stroke="#65a30d" stroke-width="2.3"/><circle cx="90.00" cy="417.07" r="2.8" fill="#65a30d"><title>КАСКО урегулирование threshold 0.70: 33%</title></circle><circle cx="124.40" cy="417.07" r="2.8" fill="#65a30d"><title>КАСКО урегулирование threshold 0.71: 33%</title></circle><circle cx="158.80" cy="443.36" r="2.8" fill="#65a30d"><title>КАСКО урегулирование threshold 0.72: 30%</title></circle><circle cx="193.20" cy="469.66" r="2.8" fill="#65a30d"><title>КАСКО урегулирование threshold 0.73: 27%</title></circle><circle cx="227.60" cy="482.80" r="2.8" fill="#65a30d"><title>КАСКО урегулирование threshold 0.74: 25%</title></circle><circle cx="262.00" cy="535.39" r="2.8" fill="#65a30d"><title>КАСКО урегулирование threshold 0.75: 18%</title></circle><circle cx="296.40" cy="535.39" r="2.8" fill="#65a30d"><title>КАСКО урегулирование threshold 0.76: 18%</title></circle><circle cx="330.80" cy="548.53" r="2.8" fill="#65a30d"><title>КАСКО урегулирование threshold 0.77: 17%</title></circle><circle cx="365.20" cy="548.53" r="2.8" fill="#65a30d"><title>КАСКО урегулирование threshold 0.78: 17%</title></circle><circle cx="399.60" cy="548.53" r="2.8" fill="#65a30d"><title>КАСКО урегулирование threshold 0.79: 17%</title></circle><circle cx="434.00" cy="548.53" r="2.8" fill="#65a30d"><title>КАСКО урегулирование threshold 0.80: 17%</title></circle><circle cx="468.40" cy="548.53" r="2.8" fill="#65a30d"><title>КАСКО урегулирование threshold 0.81: 17%</title></circle><circle cx="502.80" cy="548.53" r="2.8" fill="#65a30d"><title>КАСКО урегулирование threshold 0.82: 17%</title></circle><circle cx="537.20" cy="548.53" r="2.8" fill="#65a30d"><title>КАСКО урегулирование threshold 0.83: 17%</title></circle><circle cx="571.60" cy="548.53" r="2.8" fill="#65a30d"><title>КАСКО урегулирование threshold 0.84: 17%</title></circle><circle cx="606.00" cy="548.53" r="2.8" fill="#65a30d"><title>КАСКО урегулирование threshold 0.85: 17%</title></circle><circle cx="640.40" cy="548.53" r="2.8" fill="#65a30d"><title>КАСКО урегулирование threshold 0.86: 17%</title></circle><circle cx="674.80" cy="548.53" r="2.8" fill="#65a30d"><title>КАСКО урегулирование threshold 0.87: 17%</title></circle><circle cx="709.20" cy="548.53" r="2.8" fill="#65a30d"><title>КАСКО урегулирование threshold 0.88: 17%</title></circle><circle cx="743.60" cy="548.53" r="2.8" fill="#65a30d"><title>КАСКО урегулирование threshold 0.89: 17%</title></circle><circle cx="778.00" cy="548.53" r="2.8" fill="#65a30d"><title>КАСКО урегулирование threshold 0.90: 17%</title></circle><circle cx="812.40" cy="548.53" r="2.8" fill="#65a30d"><title>КАСКО урегулирование threshold 0.91: 17%</title></circle><circle cx="846.80" cy="548.53" r="2.8" fill="#65a30d"><title>КАСКО урегулирование threshold 0.92: 17%</title></circle><circle cx="881.20" cy="548.53" r="2.8" fill="#65a30d"><title>КАСКО урегулирование threshold 0.93: 17%</title></circle><circle cx="915.60" cy="548.53" r="2.8" fill="#65a30d"><title>КАСКО урегулирование threshold 0.94: 17%</title></circle><circle cx="950.00" cy="548.53" r="2.8" fill="#65a30d"><title>КАСКО урегулирование threshold 0.95: 17%</title></circle>
<text x="980" y="70" font-size="15" font-weight="700" fill="#111827">Тематики</text>
<line x1="988" y1="95" x2="1016" y2="95" stroke="#2563eb" stroke-width="3"/><text x="1026" y="100" font-size="14" fill="#111827">ВЗР изменения</text><line x1="988" y1="127" x2="1016" y2="127" stroke="#dc2626" stroke-width="3"/><text x="1026" y="132" font-size="14" fill="#111827">ВЗР оформление</text><line x1="988" y1="159" x2="1016" y2="159" stroke="#16a34a" stroke-width="3"/><text x="1026" y="164" font-size="14" fill="#111827">ВЗР пролонгации</text><line x1="988" y1="191" x2="1016" y2="191" stroke="#9333ea" stroke-width="3"/><text x="1026" y="196" font-size="14" fill="#111827">ВЗР расторжения</text><line x1="988" y1="223" x2="1016" y2="223" stroke="#ea580c" stroke-width="3"/><text x="1026" y="228" font-size="14" fill="#111827">ВЗР урегулирование</text><line x1="988" y1="255" x2="1016" y2="255" stroke="#0891b2" stroke-width="3"/><text x="1026" y="260" font-size="14" fill="#111827">КАСКО оформление</text><line x1="988" y1="287" x2="1016" y2="287" stroke="#be123c" stroke-width="3"/><text x="1026" y="292" font-size="14" fill="#111827">КАСКО пролонгации</text><line x1="988" y1="319" x2="1016" y2="319" stroke="#4f46e5" stroke-width="3"/><text x="1026" y="324" font-size="14" fill="#111827">КАСКО расторжение</text><line x1="988" y1="351" x2="1016" y2="351" stroke="#65a30d" stroke-width="3"/><text x="1026" y="356" font-size="14" fill="#111827">КАСКО урегулирование</text>
</svg>