<svg xmlns="http://www.w3.org/2000/svg" width="1280" height="760" viewBox="0 0 1280 760">
<style>text{font-family:Arial, sans-serif} .title{font-weight:700;font-size:24px}</style>
<rect width="100%" height="100%" fill="white"/>
<text class="title" x="90" y="38">Precision по всем тематикам от p_correct</text>
<text x="90" y="732" font-size="13" fill="#374151">p_correct threshold</text>
<text transform="translate(24 375.0) rotate(-90)" font-size="13" fill="#374151">precision</text>
<line x1="90" y1="680.00" x2="950" y2="680.00" stroke="#e5e7eb"/><text x="80" y="684.00" text-anchor="end" font-size="12" fill="#374151">0%</text><line x1="90" y1="558.00" x2="950" y2="558.00" stroke="#e5e7eb"/><text x="80" y="562.00" text-anchor="end" font-size="12" fill="#374151">20%</text><line x1="90" y1="436.00" x2="950" y2="436.00" stroke="#e5e7eb"/><text x="80" y="440.00" text-anchor="end" font-size="12" fill="#374151">40%</text><line x1="90" y1="314.00" x2="950" y2="314.00" stroke="#e5e7eb"/><text x="80" y="318.00" text-anchor="end" font-size="12" fill="#374151">60%</text><line x1="90" y1="192.00" x2="950" y2="192.00" stroke="#e5e7eb"/><text x="80" y="196.00" text-anchor="end" font-size="12" fill="#374151">80%</text><line x1="90" y1="70.00" x2="950" y2="70.00" stroke="#e5e7eb"/><text x="80" y="74.00" text-anchor="end" font-size="12" fill="#374151">100%</text><line x1="90.00" y1="70" x2="90.00" y2="680" stroke="#f3f4f6"/><text x="90.00" y="704" text-anchor="middle" font-size="12" fill="#374151">0.70</text><line x1="262.00" y1="70" x2="262.00" y2="680" stroke="#f3f4f6"/><text x="262.00" y="704" text-anchor="middle" font-size="12" fill="#374151">0.75</text><line x1="434.00" y1="70" x2="434.00" y2="680" stroke="#f3f4f6"/><text x="434.00" y="704" text-anchor="middle" font-size="12" fill="#374151">0.80</text><line x1="606.00" y1="70" x2="606.00" y2="680" stroke="#f3f4f6"/><text x="606.00" y="704" text-anchor="middle" font-size="12" fill="#374151">0.85</text><line x1="778.00" y1="70" x2="778.00" y2="680" stroke="#f3f4f6"/><text x="778.00" y="704" text-anchor="middle" font-size="12" fill="#374151">0.90</text><line x1="950.00" y1="70" x2="950.00" y2="680" stroke="#f3f4f6"/><text x="950.00" y="704" text-anchor="middle" font-size="12" fill="#374151">0.95</text>
<line x1="90" y1="70" x2="90" y2="680" stroke="#111827"/>
<line x1="90" y1="680" x2="950" y2="680" stroke="#111827"/>
<polyline points="90.00,105.88 124.40,108.12 158.80,108.12 193.20,90.33 227.60,90.33 262.00,70.00 296.40,70.00 330.80,70.00 365.20,70.00 399.60,70.00 434.00,70.00 468.40,70.00 502.80,70.00 537.20,70.00 571.60,70.00 606.00,70.00 640.40,70.00 674.80,70.00 709.20,70.00 743.60,70.00 778.00,70.00 812.40,70.00" fill="none" stroke="#2563eb" stroke-width="2.3"/><circle cx="90.00" cy="105.88" r="2.8" fill="#2563eb"><title>ВЗР изменения threshold 0.70: 94%</title></circle><circle cx="124.40" cy="108.12" r="2.8" fill="#2563eb"><title>ВЗР изменения threshold 0.71: 94%</title></circle><circle cx="158.80" cy="108.12" r="2.8" fill="#2563eb"><title>ВЗР изменения threshold 0.72: 94%</title></circle><circle cx="193.20" cy="90.33" r="2.8" fill="#2563eb"><title>ВЗР изменения threshold 0.73: 97%</title></circle><circle cx="227.60" cy="90.33" r="2.8" fill="#2563eb"><title>ВЗР изменения threshold 0.74: 97%</title></circle><circle cx="262.00" cy="70.00" r="2.8" fill="#2563eb"><title>ВЗР изменения threshold 0.75: 100%</title></circle><circle cx="296.40" cy="70.00" r="2.8" fill="#2563eb"><title>ВЗР изменения threshold 0.76: 100%</title></circle><circle cx="330.80" cy="70.00" r="2.8" fill="#2563eb"><title>ВЗР изменения threshold 0.77: 100%</title></circle><circle cx="365.20" cy="70.00" r="2.8" fill="#2563eb"><title>ВЗР изменения threshold 0.78: 100%</title></circle><circle cx="399.60" cy="70.00" r="2.8" fill="#2563eb"><title>ВЗР изменения threshold 0.79: 100%</title></circle><circle cx="434.00" cy="70.00" r="2.8" fill="#2563eb"><title>ВЗР изменения threshold 0.80: 100%</title></circle><circle cx="468.40" cy="70.00" r="2.8" fill="#2563eb"><title>ВЗР изменения threshold 0.81: 100%</title></circle><circle cx="502.80" cy="70.00" r="2.8" fill="#2563eb"><title>ВЗР изменения threshold 0.82: 100%</title></circle><circle cx="537.20" cy="70.00" r="2.8" fill="#2563eb"><title>ВЗР изменения threshold 0.83: 100%</title></circle><circle cx="571.60" cy="70.00" r="2.8" fill="#2563eb"><title>ВЗР изменения threshold 0.84: 100%</title></circle><circle cx="606.00" cy="70.00" r="2.8" fill="#2563eb"><title>ВЗР изменения threshold 0.85: 100%</title></circle><circle cx="640.40" cy="70.00" r="2.8" fill="#2563eb"><title>ВЗР изменения threshold 0.86: 100%</title></circle><circle cx="674.80" cy="70.00" r="2.8" fill="#2563eb"><title>ВЗР изменения threshold 0.87: 100%</title></circle><circle cx="709.20" cy="70.00" r="2.8" fill="#2563eb"><title>ВЗР изменения threshold 0.88: 100%</title></circle><circle cx="743.60" cy="70.00" r="2.8" fill="#2563eb"><title>ВЗР изменения threshold 0.89: 100%</title></circle><circle cx="778.00" cy="70.00" r="2.8" fill="#2563eb"><title>ВЗР изменения threshold 0.90: 100%</title></circle><circle cx="812.40" cy="70.00" r="2.8" fill="#2563eb"><title>ВЗР изменения threshold 0.91: 100%</title></circle><polyline points="90.00,134.70 124.40,135.69 158.80,138.87 193.20,140.00 227.60,142.37 262.00,143.62 296.40,144.91 330.80,144.91 365.20,146.25 399.60,146.25 434.00,136.55 468.40,139.06 502.80,111.59 537.20,118.16 571.60,120.83 606.00,104.86 640.40,105.88 674.80,108.12 709.20,110.67 743.60,115.19 778.00,115.19 812.40,93.46 846.80,100.50 881.20,100.50 915.60,100.50 950.00,100.50" fill="none" stroke="#dc2626" stroke-width="2.3"/><circle cx="90.00" cy="134.70" r="2.8" fill="#dc2626"><title>ВЗР оформление threshold 0.70: 89%</title></circle><circle cx="124.40" cy="135.69" r="2.8" fill="#dc2626"><title>ВЗР оформление threshold 0.71: 89%</title></circle><circle cx="158.80" cy="138.87" r="2.8" fill="#dc2626"><title>ВЗР оформление threshold 0.72: 89%</title></circle><circle cx="193.20" cy="140.00" r="2.8" fill="#dc2626"><title>ВЗР оформление threshold 0.73: 89%</title></circle><circle cx="227.60" cy="142.37" r="2.8" fill="#dc2626"><title>ВЗР оформление threshold 0.74: 88%</title></circle><circle cx="262.00" cy="143.62" r="2.8" fill="#dc2626"><title>ВЗР оформление threshold 0.75: 88%</title></circle><circle cx="296.40" cy="144.91" r="2.8" fill="#dc2626"><title>ВЗР оформление threshold 0.76: 88%</title></circle><circle cx="330.80" cy="144.91" r="2.8" fill="#dc2626"><title>ВЗР оформление threshold 0.77: 88%</title></circle><circle cx="365.20" cy="146.25" r="2.8" fill="#dc2626"><title>ВЗР оформление threshold 0.78: 88%</title></circle><circle cx="399.60" cy="146.25" r="2.8" fill="#dc2626"><title>ВЗР оформление threshold 0.79: 88%</title></circle><circle cx="434.00" cy="136.55" r="2.8" fill="#dc2626"><title>ВЗР оформление threshold 0.80: 89%</title></circle><circle cx="468.40" cy="139.06" r="2.8" fill="#dc2626"><title>ВЗР оформление threshold 0.81: 89%</title></circle><circle cx="502.80" cy="111.59" r="2.8" fill="#dc2626"><title>ВЗР оформление threshold 0.82: 93%</title></circle><circle cx="537.20" cy="118.16" r="2.8" fill="#dc2626"><title>ВЗР оформление threshold 0.83: 92%</title></circle><circle cx="571.60" cy="120.83" r="2.8" fill="#dc2626"><title>ВЗР оформление threshold 0.84: 92%</title></circle><circle cx="606.00" cy="104.86" r="2.8" fill="#dc2626"><title>ВЗР оформление threshold 0.85: 94%</title></circle><circle cx="640.40" cy="105.88" r="2.8" fill="#dc2626"><title>ВЗР оформление threshold 0.86: 94%</title></circle><circle cx="674.80" cy="108.12" r="2.8" fill="#dc2626"><title>ВЗР оформление threshold 0.87: 94%</title></circle><circle cx="709.20" cy="110.67" r="2.8" fill="#dc2626"><title>ВЗР оформление threshold 0.88: 93%</title></circle><circle cx="743.60" cy="115.19" r="2.8" fill="#dc2626"><title>ВЗР оформление threshold 0.89: 93%</title></circle><circle cx="778.00" cy="115.19" r="2.8" fill="#dc2626"><title>ВЗР оформление threshold 0.90: 93%</title></circle><circle cx="812.40" cy="93.46" r="2.8" fill="#dc2626"><title>ВЗР оформление threshold 0.91: 96%</title></circle><circle cx="846.80" cy="100.50" r="2.8" fill="#dc2626"><title>ВЗР оформление threshold 0.92: 95%</title></circle><circle cx="881.20" cy="100.50" r="2.8" fill="#dc2626"><title>ВЗР оформление threshold 0.93: 95%</title></circle><circle cx="915.60" cy="100.50" r="2.8" fill="#dc2626"><title>ВЗР оформление threshold 0.94: 95%</title></circle><circle cx="950.00" cy="100.50" r="2.8" fill="#dc2626"><title>ВЗР оформление threshold 0.95: 95%</title></circle><polyline points="90.00,184.38 124.40,200.71 158.80,200.71 193.20,222.50 227.60,253.00 262.00,205.56 296.40,205.56 330.80,205.56 365.20,171.67 399.60,273.33 434.00,375.00 468.40,375.00 502.80,375.00 537.20,375.00 571.60,680.00 606.00,680.00 640.40,680.00 674.80,680.00 709.20,680.00 743.60,680.00 778.00,680.00 812.40,680.00" fill="none" stroke="#16a34a" stroke-width="2.3"/><circle cx="90.00" cy="184.38" r="2.8" fill="#16a34a"><title>ВЗР пролонгации threshold 0.70: 81%</title></circle><circle cx="124.40" cy="200.71" r="2.8" fill="#16a34a"><title>ВЗР пролонгации threshold 0.71: 79%</title></circle><circle cx="158.80" cy="200.71" r="2.8" fill="#16a34a"><title>ВЗР пролонгации threshold 0.72: 79%</title></circle><circle cx="193.20" cy="222.50" r="2.8" fill="#16a34a"><title>ВЗР пролонгации threshold 0.73: 75%</title></circle><circle cx="227.60" cy="253.00" r="2.8" fill="#16a34a"><title>ВЗР пролонгации threshold 0.74: 70%</title></circle><circle cx="262.00" cy="205.56" r="2.8" fill="#16a34a"><title>ВЗР пролонгации threshold 0.75: 78%</title></circle><circle cx="296.40" cy="205.56" r="2.8" fill="#16a34a"><title>ВЗР пролонгации threshold 0.76: 78%</title></circle><circle cx="330.80" cy="205.56" r="2.8" fill="#16a34a"><title>ВЗР пролонгации threshold 0.77: 78%</title></circle><circle cx="365.20" cy="171.67" r="2.8" fill="#16a34a"><title>ВЗР пролонгации threshold 0.78: 83%</title></circle><circle cx="399.60" cy="273.33" r="2.8" fill="#16a34a"><title>ВЗР пролонгации threshold 0.79: 67%</title></circle><circle cx="434.00" cy="375.00" r="2.8" fill="#16a34a"><title>ВЗР пролонгации threshold 0.80: 50%</title></circle><circle cx="468.40" cy="375.00" r="2.8" fill="#16a34a"><title>ВЗР пролонгации threshold 0.81: 50%</title></circle><circle cx="502.80" cy="375.00" r="2.8" fill="#16a34a"><title>ВЗР пролонгации threshold 0.82: 50%</title></circle><circle cx="537.20" cy="375.00" r="2.8" fill="#16a34a"><title>ВЗР пролонгации threshold 0.83: 50%</title></circle><circle cx="571.60" cy="680.00" r="2.8" fill="#16a34a"><title>ВЗР пролонгации threshold 0.84: 0%</title></circle><circle cx="606.00" cy="680.00" r="2.8" fill="#16a34a"><title>ВЗР пролонгации threshold 0.85: 0%</title></circle><circle cx="640.40" cy="680.00" r="2.8" fill="#16a34a"><title>ВЗР пролонгации threshold 0.86: 0%</title></circle><circle cx="674.80" cy="680.00" r="2.8" fill="#16a34a"><title>ВЗР пролонгации threshold 0.87: 0%</title></circle><circle cx="709.20" cy="680.00" r="2.8" fill="#16a34a"><title>ВЗР пролонгации threshold 0.88: 0%</title></circle><circle cx="743.60" cy="680.00" r="2.8" fill="#16a34a"><title>ВЗР пролонгации threshold 0.89: 0%</title></circle><circle cx="778.00" cy="680.00" r="2.8" fill="#16a34a"><title>ВЗР пролонгации threshold 0.90: 0%</title></circle><circle cx="812.40" cy="680.00" r="2.8" fill="#16a34a"><title>ВЗР пролонгации threshold 0.91: 0%</title></circle><polyline points="90.00,132.24 124.40,132.24 158.80,109.78 193.20,109.78 227.60,97.11 262.00,70.00 296.40,70.00 330.80,70.00 365.20,70.00 399.60,70.00 434.00,70.00 468.40,70.00 502.80,70.00 537.20,70.00 571.60,70.00 606.00,70.00 640.40,70.00 674.80,70.00 709.20,70.00 743.60,70.00 778.00,70.00 812.40,70.00 846.80,70.00 881.20,70.00 915.60,70.00" fill="none" stroke="#9333ea" stroke-width="2.3"/><circle cx="90.00" cy="132.24" r="2.8" fill="#9333ea"><title>ВЗР расторжения threshold 0.70: 90%</title></circle><circle cx="124.40" cy="132.24" r="2.8" fill="#9333ea"><title>ВЗР расторжения threshold 0.71: 90%</title></circle><circle cx="158.80" cy="109.78" r="2.8" fill="#9333ea"><title>ВЗР расторжения threshold 0.72: 93%</title></circle><circle cx="193.20" cy="109.78" r="2.8" fill="#9333ea"><title>ВЗР расторжения threshold 0.73: 93%</title></circle><circle cx="227.60" cy="97.11" r="2.8" fill="#9333ea"><title>ВЗР расторжения threshold 0.74: 96%</title></circle><circle cx="262.00" cy="70.00" r="2.8" fill="#9333ea"><title>ВЗР расторжения threshold 0.75: 100%</title></circle><circle cx="296.40" cy="70.00" r="2.8" fill="#9333ea"><title>ВЗР расторжения threshold 0.76: 100%</title></circle><circle cx="330.80" cy="70.00" r="2.8" fill="#9333ea"><title>ВЗР расторжения threshold 0.77: 100%</title></circle><circle cx="365.20" cy="70.00" r="2.8" fill="#9333ea"><title>ВЗР расторжения threshold 0.78: 100%</title></circle><circle cx="399.60" cy="70.00" r="2.8" fill="#9333ea"><title>ВЗР расторжения threshold 0.79: 100%</title></circle><circle cx="434.00" cy="70.00" r="2.8" fill="#9333ea"><title>ВЗР расторжения threshold 0.80: 100%</title></circle><circle cx="468.40" cy="70.00" r="2.8" fill="#9333ea"><title>ВЗР расторжения threshold 0.81: 100%</title></circle><circle cx="502.80" cy="70.00" r="2.8" fill="#9333ea"><title>ВЗР расторжения threshold 0.82: 100%</title></circle><circle cx="537.20" cy="70.00" r="2.8" fill="#9333ea"><title>ВЗР расторжения threshold 0.83: 100%</title></circle><circle cx="571.60" cy="70.00" r="2.8" fill="#9333ea"><title>ВЗР расторжения threshold 0.84: 100%</title></circle><circle cx="606.00" cy="70.00" r="2.8" fill="#9333ea"><title>ВЗР расторжения threshold 0.85: 100%</title></circle><circle cx="640.40" cy="70.00" r="2.8" fill="#9333ea"><title>ВЗР расторжения threshold 0.86: 100%</title></circle><circle cx="674.80" cy="70.00" r="2.8" fill="#9333ea"><title>ВЗР расторжения threshold 0.87: 100%</title></circle><circle cx="709.20" cy="70.00" r="2.8" fill="#9333ea"><title>ВЗР расторжения threshold 0.88: 100%</title></circle><circle cx="743.60" cy="70.00" r="2.8" fill="#9333ea"><title>ВЗР расторжения threshold 0.89: 100%</title></circle><circle cx="778.00" cy="70.00" r="2.8" fill="#9333ea"><title>ВЗР расторжения threshold 0.90: 100%</title></circle><circle cx="812.40" cy="70.00" r="2.8" fill="#9333ea"><title>ВЗР расторжения threshold 0.91: 100%</title></circle><circle cx="846.80" cy="70.00" r="2.8" fill="#9333ea"><title>ВЗР расторжения threshold 0.92: 100%</title></circle><circle cx="881.20" cy="70.00" r="2.8" fill="#9333ea"><title>ВЗР расторжения threshold 0.93: 100%</title></circle><circle cx="915.60" cy="70.00" r="2.8" fill="#9333ea"><title>ВЗР расторжения threshold 0.94: 100%</title></circle><polyline points="90.00,222.50 124.40,236.36 158.80,262.63 193.20,285.29 227.60,287.86 262.00,287.86 296.40,287.86 330.80,273.33 365.20,146.25 399.60,70.00 434.00,70.00 468.40,70.00 502.80,70.00 537.20,70.00 571.60,70.00 606.00,70.00" fill="none" stroke="#ea580c" stroke-width="2.3"/><circle cx="90.00" cy="222.50" r="2.8" fill="#ea580c"><title>ВЗР урегулирование threshold 0.70: 75%</title></circle><circle cx="124.40" cy="236.36" r="2.8" fill="#ea580c"><title>ВЗР урегулирование threshold 0.71: 73%</title></circle><circle cx="158.80" cy="262.63" r="2.8" fill="#ea580c"><title>ВЗР урегулирование threshold 0.72: 68%</title></circle><circle cx="193.20" cy="285.29" r="2.8" fill="#ea580c"><title>ВЗР урегулирование threshold 0.73: 65%</title></circle><circle cx="227.60" cy="287.86" r="2.8" fill="#ea580c"><title>ВЗР урегулирование threshold 0.74: 64%</title></circle><circle cx="262.00" cy="287.86" r="2.8" fill="#ea580c"><title>ВЗР урегулирование threshold 0.75: 64%</title></circle><circle cx="296.40" cy="287.86" r="2.8" fill="#ea580c"><title>ВЗР урегулирование threshold 0.76: 64%</title></circle><circle cx="330.80" cy="273.33" r="2.8" fill="#ea580c"><title>ВЗР урегулирование threshold 0.77: 67%</title></circle><circle cx="365.20" cy="146.25" r="2.8" fill="#ea580c"><title>ВЗР урегулирование threshold 0.78: 88%</title></circle><circle cx="399.60" cy="70.00" r="2.8" fill="#ea580c"><title>ВЗР урегулирование threshold 0.79: 100%</title></circle><circle cx="434.00" cy="70.00" r="2.8" fill="#ea580c"><title>ВЗР урегулирование threshold 0.80: 100%</title></circle><circle cx="468.40" cy="70.00" r="2.8" fill="#ea580c"><title>ВЗР урегулирование threshold 0.81: 100%</title></circle><circle cx="502.80" cy="70.00" r="2.8" fill="#ea580c"><title>ВЗР урегулирование threshold 0.82: 100%</title></circle><circle cx="537.20" cy="70.00" r="2.8" fill="#ea580c"><title>ВЗР урегулирование threshold 0.83: 100%</title></circle><circle cx="571.60" cy="70.00" r="2.8" fill="#ea580c"><title>ВЗР урегулирование threshold 0.84: 100%</title></circle><circle cx="606.00" cy="70.00" r="2.8" fill="#ea580c"><title>ВЗР урегулирование threshold 0.85: 100%</title></circle><polyline points="90.00,136.55 124.40,139.06 158.80,144.69 193.20,146.25 227.60,147.87 262.00,153.18 296.40,118.16 330.80,122.29 365.20,123.82 399.60,127.19 434.00,91.79 468.40,70.00 502.80,70.00 537.20,70.00 571.60,70.00 606.00,70.00 640.40,70.00 674.80,70.00 709.20,70.00 743.60,70.00 778.00,70.00 812.40,70.00 846.80,70.00 881.20,70.00 915.60,70.00 950.00,70.00" fill="none" stroke="#0891b2" stroke-width="2.3"/><circle cx="90.00" cy="136.55" r="2.8" fill="#0891b2"><title>КАСКО оформление threshold 0.70: 89%</title></circle><circle cx="124.40" cy="139.06" r="2.8" fill="#0891b2"><title>КАСКО оформление threshold 0.71: 89%</title></circle><circle cx="158.80" cy="144.69" r="2.8" fill="#0891b2"><title>КАСКО оформление threshold 0.72: 88%</title></circle><circle cx="193.20" cy="146.25" r="2.8" fill="#0891b2"><title>КАСКО оформление threshold 0.73: 88%</title></circle><circle cx="227.60" cy="147.87" r="2.8" fill="#0891b2"><title>КАСКО оформление threshold 0.74: 87%</title></circle><circle cx="262.00" cy="153.18" r="2.8" fill="#0891b2"><title>КАСКО оформление threshold 0.75: 86%</title></circle><circle cx="296.40" cy="118.16" r="2.8" fill="#0891b2"><title>КАСКО оформление threshold 0.76: 92%</title></circle><circle cx="330.80" cy="122.29" r="2.8" fill="#0891b2"><title>КАСКО оформление threshold 0.77: 91%</title></circle><circle cx="365.20" cy="123.82" r="2.8" fill="#0891b2"><title>КАСКО оформление threshold 0.78: 91%</title></circle><circle cx="399.60" cy="127.19" r="2.8" fill="#0891b2"><title>КАСКО оформление threshold 0.79: 91%</title></circle><circle cx="434.00" cy="91.79" r="2.8" fill="#0891b2"><title>КАСКО оформление threshold 0.80: 96%</title></circle><circle cx="468.40" cy="70.00" r="2.8" fill="#0891b2"><title>КАСКО оформление threshold 0.81: 100%</title></circle><circle cx="502.80" cy="70.00" r="2.8" fill="#0891b2"><title>КАСКО оформление threshold 0.82: 100%</title></circle><circle cx="537.20" cy="70.00" r="2.8" fill="#0891b2"><title>КАСКО оформление threshold 0.83: 100%</title></circle><circle cx="571.60" cy="70.00" r="2.8" fill="#0891b2"><title>КАСКО оформление threshold 0.84: 100%</title></circle><circle cx="606.00" cy="70.00" r="2.8" fill="#0891b2"><title>КАСКО оформление threshold 0.85: 100%</title></circle><circle cx="640.40" cy="70.00" r="2.8" fill="#0891b2"><title>КАСКО оформление threshold 0.86: 100%</title></circle><circle cx="674.80" cy="70.00" r="2.8" fill="#0891b2"><title>КАСКО оформление threshold 0.87: 100%</title></circle><circle cx="709.20" cy="70.00" r="2.8" fill="#0891b2"><title>КАСКО оформление threshold 0.88: 100%</title></circle><circle cx="743.60" cy="70.00" r="2.8" fill="#0891b2"><title>КАСКО оформление threshold 0.89: 100%</title></circle><circle cx="778.00" cy="70.00" r="2.8" fill="#0891b2"><title>КАСКО оформление threshold 0.90: 100%</title></circle><circle cx="812.40" cy="70.00" r="2.8" fill="#0891b2"><title>КАСКО оформление threshold 0.91: 100%</title></circle><circle cx="846.80" cy="70.00" r="2.8" fill="#0891b2"><title>КАСКО оформление threshold 0.92: 100%</title></circle><circle cx="881.20" cy="70.00" r="2.8" fill="#0891b2"><title>КАСКО оформление threshold 0.93: 100%</title></circle><circle cx="915.60" cy="70.00" r="2.8" fill="#0891b2"><title>КАСКО оформление threshold 0.94: 100%</title></circle><circle cx="950.00" cy="70.00" r="2.8" fill="#0891b2"><title>КАСКО оформление threshold 0.95: 100%</title></circle><polyline points="90.00,154.72 124.40,146.25 158.80,151.33 193.20,137.78 227.60,143.20 262.00,153.18 296.40,171.67 330.80,141.76 365.20,141.76 399.60,108.12 434.00,108.12 468.40,108.12 502.80,108.12 537.20,108.12 571.60,108.12 606.00,70.00 640.40,70.00 674.80,70.00 709.20,70.00 743.60,70.00 778.00,70.00 812.40,70.00 846.80,70.00 881.20,70.00 915.60,70.00 950.00,70.00" fill="none" stroke="#be123c" stroke-width="2.3"/><circle cx="90.00" cy="154.72" r="2.8" fill="#be123c"><title>КАСКО пролонгации threshold 0.70: 86%</title></circle><circle cx="124.40" cy="146.25" r="2.8" fill="#be123c"><title>КАСКО пролонгации threshold 0.71: 88%</title></circle><circle cx="158.80" cy="151.33" r="2.8" fill="#be123c"><title>КАСКО пролонгации threshold 0.72: 87%</title></circle><circle cx="193.20" cy="137.78" r="2.8" fill="#be123c"><title>КАСКО пролонгации threshold 0.73: 89%</title></circle><circle cx="227.60" cy="143.20" r="2.8" fill="#be123c"><title>КАСКО пролонгации threshold 0.74: 88%</title></circle><circle cx="262.00" cy="153.18" r="2.8" fill="#be123c"><title>КАСКО пролонгации threshold 0.75: 86%</title></circle><circle cx="296.40" cy="171.67" r="2.8" fill="#be123c"><title>КАСКО пролонгации threshold 0.76: 83%</title></circle><circle cx="330.80" cy="141.76" r="2.8" fill="#be123c"><title>КАСКО пролонгации threshold 0.77: 88%</title></circle><circle cx="365.20" cy="141.76" r="2.8" fill="#be123c"><title>КАСКО пролонгации threshold 0.78: 88%</title></circle><circle cx="399.60" cy="108.12" r="2.8" fill="#be123c"><title>КАСКО пролонгации threshold 0.79: 94%</title></circle><circle cx="434.00" cy="108.12" r="2.8" fill="#be123c"><title>КАСКО пролонгации threshold 0.80: 94%</title></circle><circle cx="468.40" cy="108.12" r="2.8" fill="#be123c"><title>КАСКО пролонгации threshold 0.81: 94%</title></circle><circle cx="502.80" cy="108.12" r="2.8" fill="#be123c"><title>КАСКО пролонгации threshold 0.82: 94%</title></circle><circle cx="537.20" cy="108.12" r="2.8" fill="#be123c"><title>КАСКО пролонгации threshold 0.83: 94%</title></circle><circle cx="571.60" cy="108.12" r="2.8" fill="#be123c"><title>КАСКО пролонгации threshold 0.84: 94%</title></circle><circle cx="606.00" cy="70.00" r="2.8" fill="#be123c"><title>КАСКО пролонгации threshold 0.85: 100%</title></circle><circle cx="640.40" cy="70.00" r="2.8" fill="#be123c"><title>КАСКО пролонгации threshold 0.86: 100%</title></circle><circle cx="674.80" cy="70.00" r="2.8" fill="#be123c"><title>КАСКО пролонгации threshold 0.87: 100%</title></circle><circle cx="709.20" cy="70.00" r="2.8" fill="#be123c"><title>КАСКО пролонгации threshold 0.88: 100%</title></circle><circle cx="743.60" cy="70.00" r="2.8" fill="#be123c"><title>КАСКО пролонгации threshold 0.89: 100%</title></circle><circle cx="778.00" cy="70.00" r="2.8" fill="#be123c"><title>КАСКО пролонгации threshold 0.90: 100%</title></circle><circle cx="812.40" cy="70.00" r="2.8" fill="#be123c"><title>КАСКО пролонгации threshold 0.91: 100%</title></circle><circle cx="846.80" cy="70.00" r="2.8" fill="#be123c"><title>КАСКО пролонгации threshold 0.92: 100%</title></circle><circle cx="881.20" cy="70.00" r="2.8" fill="#be123c"><title>КАСКО пролонгации threshold 0.93: 100%</title></circle><circle cx="915.60" cy="70.00" r="2.8" fill="#be123c"><title>КАСКО пролонгации threshold 0.94: 100%</title></circle><circle cx="950.00" cy="70.00" r="2.8" fill="#be123c"><title>КАСКО пролонгации threshold 0.95: 100%</title></circle><polyline points="90.00,171.67 124.40,171.67 158.80,171.67 193.20,171.67 227.60,171.67 262.00,171.67 296.40,171.67 330.80,171.67 365.20,171.67 399.60,171.67 434.00,171.67 468.40,171.67 502.80,171.67 537.20,171.67 571.60,171.67 606.00,171.67 640.40,171.67 674.80,171.67 709.20,171.67 743.60,171.67 778.00,171.67 812.40,171.67 846.80,171.67 881.20,171.67 915.60,171.67 950.00,171.67" fill="none" stroke="#4f46e5" stroke-width="2.3"/><circle cx="90.00" cy="171.67" r="2.8" fill="#4f46e5"><title>КАСКО расторжение threshold 0.70: 83%</title></circle><circle cx="124.40" cy="171.67" r="2.8" fill="#4f46e5"><title>КАСКО расторжение threshold 0.71: 83%</title></circle><circle cx="158.80" cy="171.67" r="2.8" fill="#4f46e5"><title>КАСКО расторжение threshold 0.72: 83%</title></circle><circle cx="193.20" cy="171.67" r="2.8" fill="#4f46e5"><title>КАСКО расторжение threshold 0.73: 83%</title></circle><circle cx="227.60" cy="171.67" r="2.8" fill="#4f46e5"><title>КАСКО расторжение threshold 0.74: 83%</title></circle><circle cx="262.00" cy="171.67" r="2.8" fill="#4f46e5"><title>КАСКО расторжение threshold 0.75: 83%</title></circle><circle cx="296.40" cy="171.67" r="2.8" fill="#4f46e5"><title>КАСКО расторжение threshold 0.76: 83%</title></circle><circle cx="330.80" cy="171.67" r="2.8" fill="#4f46e5"><title>КАСКО расторжение threshold 0.77: 83%</title></circle><circle cx="365.20" cy="171.67" r="2.8" fill="#4f46e5"><title>КАСКО расторжение threshold 0.78: 83%</title></circle><circle cx="399.60" cy="171.67" r="2.8" fill="#4f46e5"><title>КАСКО расторжение threshold 0.79: 83%</title></circle><circle cx="434.00" cy="171.67" r="2.8" fill="#4f46e5"><title>КАСКО расторжение threshold 0.80: 83%</title></circle><circle cx="468.40" cy="171.67" r="2.8" fill="#4f46e5"><title>КАСКО расторжение threshold 0.81: 83%</title></circle><circle cx="502.80" cy="171.67" r="2.8" fill="#4f46e5"><title>КАСКО расторжение threshold 0.82: 83%</title></circle><circle cx="537.20" cy="171.67" r="2.8" fill="#4f46e5"><title>КАСКО расторжение threshold 0.83: 83%</title></circle><circle cx="571.60" cy="171.67" r="2.8" fill="#4f46e5"><title>КАСКО расторжение threshold 0.84: 83%</title></circle><circle cx="606.00" cy="171.67" r="2.8" fill="#4f46e5"><title>КАСКО расторжение threshold 0.85: 83%</title></circle><circle cx="640.40" cy="171.67" r="2.8" fill="#4f46e5"><title>КАСКО расторжение threshold 0.86: 83%</title></circle><circle cx="674.80" cy="171.67" r="2.8" fill="#4f46e5"><title>КАСКО расторжение threshold 0.87: 83%</title></circle><circle cx="709.20" cy="171.67" r="2.8" fill="#4f46e5"><title>КАСКО расторжение threshold 0.88: 83%</title></circle><circle cx="743.60" cy="171.67" r="2.8" fill="#4f46e5"><title>КАСКО расторжение threshold 0.89: 83%</title></circle><circle cx="778.00" cy="171.67" r="2.8" fill="#4f46e5"><title>КАСКО расторжение threshold 0.90: 83%</title></circle><circle cx="812.40" cy="171.67" r="2.8" fill="#4f46e5"><title>КАСКО расторжение threshold 0.91: 83%</title></circle><circle cx="846.80" cy="171.67" r="2.8" fill="#4f46e5"><title>КАСКО расторжение threshold 0.92: 83%</title></circle><circle cx="881.20" cy="171.67" r="2.8" fill="#4f46e5"><title>КАСКО расторжение threshold 0.93: 83%</title></circle><circle cx="915.60" cy="171.67" r="2.8" fill="#4f46e5"><title>КАСКО расторжение threshold 0.94: 83%</title></circle><circle cx="950.00" cy="171.67" r="2.8" fill="#4f46e5"><title>КАСКО расторжение threshold 0.95: 83%</title></circle><polyline points="90.00,100.50 124.40,100.50 158.80,103.89 193.20,108.12 227.60,110.67 262.00,125.45 296.40,125.45 330.80,131.00 365.20,131.00 399.60,131.00 434.00,131.00 468.40,131.00 502.80,131.00 537.20,131.00 571.60,131.00 606.00,131.00 640.40,131.00 674.80,131.00 709.20,131.00 743.60,131.00 778.00,131.00 812.40,131.00 846.80,131.00 881.20,131.00 915.60,131.00 950.00,131.00" fill="none" stroke="#65a30d" stroke-width="2.3"/><circle cx="90.00" cy="100.50" r="2.8" fill="#65a30d"><title>КАСКО урегулирование threshold 0.70: 95%</title></circle><circle cx="124.40" cy="100.50" r="2.8" fill="#65a30d"><title>КАСКО урегулирование threshold 0.71: 95%</title></circle><circle cx="158.80" cy="103.89" r="2.8" fill="#65a30d"><title>КАСКО урегулирование threshold 0.72: 94%</title></circle><circle cx="193.20" cy="108.12" r="2.8" fill="#65a30d"><title>КАСКО урегулирование threshold 0.73: 94%</title></circle><circle cx="227.60" cy="110.67" r="2.8" fill="#65a30d"><title>КАСКО урегулирование threshold 0.74: 93%</title></circle><circle cx="262.00" cy="125.45" r="2.8" fill="#65a30d"><title>КАСКО урегулирование threshold 0.75: 91%</title></circle><circle cx="296.40" cy="125.45" r="2.8" fill="#65a30d"><title>КАСКО урегулирование threshold 0.76: 91%</title></circle><circle cx="330.80" cy="131.00" r="2.8" fill="#65a30d"><title>КАСКО урегулирование threshold 0.77: 90%</title></circle><circle cx="365.20" cy="131.00" r="2.8" fill="#65a30d"><title>КАСКО урегулирование threshold 0.78: 90%</title></circle><circle cx="399.60" cy="131.00" r="2.8" fill="#65a30d"><title>КАСКО урегулирование threshold 0.79: 90%</title></circle><circle cx="434.00" cy="131.00" r="2.8" fill="#65a30d"><title>КАСКО урегулирование threshold 0.80: 90%</title></circle><circle cx="468.40" cy="131.00" r="2.8" fill="#65a30d"><title>КАСКО урегулирование threshold 0.81: 90%</title></circle><circle cx="502.80" cy="131.00" r="2.8" fill="#65a30d"><title>КАСКО урегулирование threshold 0.82: 90%</title></circle><circle cx="537.20" cy="131.00" r="2.8" fill="#65a30d"><title>КАСКО урегулирование threshold 0.83: 90%</title></circle><circle cx="571.60" cy="131.00" r="2.8" fill="#65a30d"><title>КАСКО урегулирование threshold 0.84: 90%</title></circle><circle cx="606.00" cy="131.00" r="2.8" fill="#65a30d"><title>КАСКО урегулирование threshold 0.85: 90%</title></circle><circle cx="640.40" cy="131.00" r="2.8" fill="#65a30d"><title>КАСКО урегулирование threshold 0.86: 90%</title></circle><circle cx="674.80" cy="131.00" r="2.8" fill="#65a30d"><title>КАСКО урегулирование threshold 0.87: 90%</title></circle><circle cx="709.20" cy="131.00" r="2.8" fill="#65a30d"><title>КАСКО урегулирование threshold 0.88: 90%</title></circle><circle cx="743.60" cy="131.00" r="2.8" fill="#65a30d"><title>КАСКО урегулирование threshold 0.89: 90%</title></circle><circle cx="778.00" cy="131.00" r="2.8" fill="#65a30d"><title>КАСКО урегулирование threshold 0.90: 90%</title></circle><circle cx="812.40" cy="131.00" r="2.8" fill="#65a30d"><title>КАСКО урегулирование threshold 0.91: 90%</title></circle><circle cx="846.80" cy="131.00" r="2.8" fill="#65a30d"><title>КАСКО урегулирование threshold 0.92: 90%</title></circle><circle cx="881.20" cy="131.00" r="2.8" fill="#65a30d"><title>КАСКО урегулирование threshold 0.93: 90%</title></circle><circle cx="915.60" cy="131.00" r="2.8" fill="#65a30d"><title>КАСКО урегулирование threshold 0.94: 90%</title></circle><circle cx="950.00" cy="131.00" r="2.8" fill="#65a30d"><title>КАСКО урегулирование threshold 0.95: 90%</title></circle>
<text x="980" y="70" font-size="15" font-weight="700" fill="#111827">Тематики</text>
<line x1="988" y1="95" x2="1016" y2="95" stroke="#2563eb" stroke-width="3"/><text x="1026" y="100" font-size="14" fill="#111827">ВЗР изменения</text><line x1="988" y1="127" x2="1016" y2="127" stroke="#dc2626" stroke-width="3"/><text x="1026" y="132" font-size="14" fill="#111827">ВЗР оформление</text><line x1="988" y1="159" x2="1016" y2="159" stroke="#16a34a" stroke-width="3"/><text x="1026" y="164" font-size="14" fill="#111827">ВЗР пролонгации</text><line x1="988" y1="191" x2="1016" y2="191" stroke="#9333ea" stroke-width="3"/><text x="1026" y="196" font-size="14" fill="#111827">ВЗР расторжения</text><line x1="988" y1="223" x2="1016" y2="223" stroke="#ea580c" stroke-width="3"/><text x="1026" y="228" font-size="14" fill="#111827">ВЗР урегулирование</text><line x1="988" y1="255" x2="1016" y2="255" stroke="#0891b2" stroke-width="3"/><text x="1026" y="260" font-size="14" fill="#111827">КАСКО оформление</text><line x1="988" y1="287" x2="1016" y2="287" stroke="#be123c" stroke-width="3"/><text x="1026" y="292" font-size="14" fill="#111827">КАСКО пролонгации</text><line x1="988" y1="319" x2="1016" y2="319" stroke="#4f46e5" stroke-width="3"/><text x="1026" y="324" font-size="14" fill="#111827">КАСКО расторжение</text><line x1="988" y1="351" x2="1016" y2="351" stroke="#65a30d" stroke-width="3"/><text x="1026" y="356" font-size="14" fill="#111827">КАСКО урегулирование</text>
</svg>