<svg xmlns="http://www.w3.org/2000/svg" width="980" height="560" viewBox="0 0 980 560">
<style>text{font-family:Arial, sans-serif} .title{font-weight:700;font-size:22px}</style>
<rect width="100%" height="100%" fill="white"/>
<text class="title" x="80" y="32">Coverage от p_correct threshold</text>
<text x="80" y="532" font-size="13" fill="#374151">threshold p_correct</text>
<text transform="translate(20 270.0) rotate(-90)" font-size="13" fill="#374151">coverage</text>
<line x1="80" y1="480.00" x2="950" y2="480.00" stroke="#e5e7eb"/><text x="70" y="484.00" text-anchor="end" font-size="12" fill="#374151">6.3%</text><line x1="80" y1="396.00" x2="950" y2="396.00" stroke="#e5e7eb"/><text x="70" y="400.00" text-anchor="end" font-size="12" fill="#374151">14.0%</text><line x1="80" y1="312.00" x2="950" y2="312.00" stroke="#e5e7eb"/><text x="70" y="316.00" text-anchor="end" font-size="12" fill="#374151">21.6%</text><line x1="80" y1="228.00" x2="950" y2="228.00" stroke="#e5e7eb"/><text x="70" y="232.00" text-anchor="end" font-size="12" fill="#374151">29.3%</text><line x1="80" y1="144.00" x2="950" y2="144.00" stroke="#e5e7eb"/><text x="70" y="148.00" text-anchor="end" font-size="12" fill="#374151">37.0%</text><line x1="80" y1="60.00" x2="950" y2="60.00" stroke="#e5e7eb"/><text x="70" y="64.00" text-anchor="end" font-size="12" fill="#374151">44.7%</text><line x1="80.00" y1="60" x2="80.00" y2="480" stroke="#f3f4f6"/><text x="80.00" y="504" text-anchor="middle" font-size="12" fill="#374151">0.70</text><line x1="254.00" y1="60" x2="254.00" y2="480" stroke="#f3f4f6"/><text x="254.00" y="504" text-anchor="middle" font-size="12" fill="#374151">0.75</text><line x1="428.00" y1="60" x2="428.00" y2="480" stroke="#f3f4f6"/><text x="428.00" y="504" text-anchor="middle" font-size="12" fill="#374151">0.80</text><line x1="602.00" y1="60" x2="602.00" y2="480" stroke="#f3f4f6"/><text x="602.00" y="504" text-anchor="middle" font-size="12" fill="#374151">0.85</text><line x1="776.00" y1="60" x2="776.00" y2="480" stroke="#f3f4f6"/><text x="776.00" y="504" text-anchor="middle" font-size="12" fill="#374151">0.90</text><line x1="950.00" y1="60" x2="950.00" y2="480" stroke="#f3f4f6"/><text x="950.00" y="504" text-anchor="middle" font-size="12" fill="#374151">0.95</text>
<line x1="80" y1="60" x2="80" y2="480" stroke="#111827"/>
<line x1="80" y1="480" x2="950" y2="480" stroke="#111827"/>
<polyline points="80.00,92.78 114.80,110.10 149.60,132.75 184.40,150.08 219.20,166.07 254.00,196.71 288.80,215.37 323.60,228.69 358.40,242.02 393.20,258.01 428.00,275.33 462.80,292.65 497.60,324.63 532.40,341.95 567.20,361.94 602.00,372.60 636.80,377.93 671.60,388.59 706.40,399.25 741.20,409.91 776.00,409.91 810.80,417.91 845.60,436.56 880.40,440.56 915.20,443.22 950.00,447.22" fill="none" stroke="#2563eb" stroke-width="2.4"/>
<circle cx="90" cy="510" r="5" fill="#2563eb"/><text x="100" y="515" font-size="13">Все тесты</text>
</svg>