<svg xmlns="http://www.w3.org/2000/svg" width="900" height="560" viewBox="0 0 900 560">
<style>text{font-family:Arial, sans-serif} .title{font-weight:700;font-size:22px}</style>
<rect width="100%" height="100%" fill="white"/>
<text class="title" x="80" y="32">Компромисс coverage / precision</text>
<text x="80" y="532" font-size="13">coverage</text>
<text transform="translate(20 275.0) rotate(-90)" font-size="13">precision</text>
<line x1="80.00" y1="60" x2="80.00" y2="490" stroke="#f3f4f6"/><text x="80.00" y="512" text-anchor="middle" font-size="12">0%</text><line x1="80" y1="490.00" x2="860" y2="490.00" stroke="#e5e7eb"/><text x="70" y="494.00" text-anchor="end" font-size="12">82%</text><line x1="236.00" y1="60" x2="236.00" y2="490" stroke="#f3f4f6"/><text x="236.00" y="512" text-anchor="middle" font-size="12">9%</text><line x1="80" y1="404.00" x2="860" y2="404.00" stroke="#e5e7eb"/><text x="70" y="408.00" text-anchor="end" font-size="12">86%</text><line x1="392.00" y1="60" x2="392.00" y2="490" stroke="#f3f4f6"/><text x="392.00" y="512" text-anchor="middle" font-size="12">18%</text><line x1="80" y1="318.00" x2="860" y2="318.00" stroke="#e5e7eb"/><text x="70" y="322.00" text-anchor="end" font-size="12">90%</text><line x1="548.00" y1="60" x2="548.00" y2="490" stroke="#f3f4f6"/><text x="548.00" y="512" text-anchor="middle" font-size="12">27%</text><line x1="80" y1="232.00" x2="860" y2="232.00" stroke="#e5e7eb"/><text x="70" y="236.00" text-anchor="end" font-size="12">93%</text><line x1="704.00" y1="60" x2="704.00" y2="490" stroke="#f3f4f6"/><text x="704.00" y="512" text-anchor="middle" font-size="12">36%</text><line x1="80" y1="146.00" x2="860" y2="146.00" stroke="#e5e7eb"/><text x="70" y="150.00" text-anchor="end" font-size="12">96%</text><line x1="860.00" y1="60" x2="860.00" y2="490" stroke="#f3f4f6"/><text x="860.00" y="512" text-anchor="middle" font-size="12">45%</text><line x1="80" y1="60.00" x2="860" y2="60.00" stroke="#e5e7eb"/><text x="70" y="64.00" text-anchor="end" font-size="12">100%</text>
<line x1="80" y1="60" x2="80" y2="490" stroke="#111827"/>
<line x1="80" y1="490" x2="860" y2="490" stroke="#111827"/>
<circle cx="802.22" cy="361.75" r="5" fill="rgb(255, 90, 128)"><title>threshold 0.70: precision 87.7%, coverage 41.7%</title></circle><circle cx="774.77" cy="366.21" r="5" fill="rgb(249, 90, 131)"><title>threshold 0.71: precision 87.5%, coverage 40.1%</title></circle><circle cx="738.87" cy="367.14" r="5" fill="rgb(243, 90, 134)"><title>threshold 0.72: precision 87.5%, coverage 38.0%</title></circle><circle cx="711.42" cy="364.06" r="5" fill="rgb(238, 90, 136)"><title>threshold 0.73: precision 87.6%, coverage 36.5%</title></circle><circle cx="686.08" cy="359.65" r="5" fill="rgb(232, 90, 139)"><title>threshold 0.74: precision 87.8%, coverage 35.0%</title></circle><circle cx="637.50" cy="348.53" r="5" fill="rgb(226, 90, 142)"><title>threshold 0.75: precision 88.3%, coverage 32.2%</title></circle><circle cx="607.94" cy="335.20" r="5" fill="rgb(221, 90, 145)"><title>threshold 0.76: precision 88.8%, coverage 30.5%</title></circle><circle cx="586.82" cy="326.19" r="5" fill="rgb(215, 90, 148)"><title>threshold 0.77: precision 89.2%, coverage 29.3%</title></circle><circle cx="565.71" cy="295.03" r="5" fill="rgb(210, 90, 150)"><title>threshold 0.78: precision 90.4%, coverage 28.0%</title></circle><circle cx="540.36" cy="285.43" r="5" fill="rgb(204, 90, 153)"><title>threshold 0.79: precision 90.8%, coverage 26.6%</title></circle><circle cx="512.91" cy="263.76" r="5" fill="rgb(198, 90, 156)"><title>threshold 0.80: precision 91.7%, coverage 25.0%</title></circle><circle cx="485.46" cy="264.76" r="5" fill="rgb(193, 90, 159)"><title>threshold 0.81: precision 91.7%, coverage 23.4%</title></circle><circle cx="434.78" cy="250.14" r="5" fill="rgb(187, 90, 162)"><title>threshold 0.82: precision 92.3%, coverage 20.5%</title></circle><circle cx="407.32" cy="266.08" r="5" fill="rgb(182, 90, 164)"><title>threshold 0.83: precision 91.6%, coverage 18.9%</title></circle><circle cx="375.65" cy="288.16" r="5" fill="rgb(176, 90, 167)"><title>threshold 0.84: precision 90.7%, coverage 17.1%</title></circle><circle cx="358.75" cy="264.76" r="5" fill="rgb(171, 90, 170)"><title>threshold 0.85: precision 91.7%, coverage 16.1%</title></circle><circle cx="350.31" cy="271.16" r="5" fill="rgb(165, 90, 173)"><title>threshold 0.86: precision 91.4%, coverage 15.6%</title></circle><circle cx="333.41" cy="285.24" r="5" fill="rgb(159, 90, 176)"><title>threshold 0.87: precision 90.8%, coverage 14.6%</title></circle><circle cx="316.52" cy="301.33" r="5" fill="rgb(154, 90, 178)"><title>threshold 0.88: precision 90.2%, coverage 13.7%</title></circle><circle cx="299.62" cy="319.89" r="5" fill="rgb(148, 90, 181)"><title>threshold 0.89: precision 89.4%, coverage 12.7%</title></circle><circle cx="299.62" cy="319.89" r="5" fill="rgb(142, 90, 184)"><title>threshold 0.90: precision 89.4%, coverage 12.7%</title></circle><circle cx="286.95" cy="310.73" r="5" fill="rgb(137, 90, 187)"><title>threshold 0.91: precision 89.8%, coverage 12.0%</title></circle><circle cx="257.39" cy="323.27" r="5" fill="rgb(131, 90, 190)"><title>threshold 0.92: precision 89.3%, coverage 10.2%</title></circle><circle cx="251.05" cy="333.02" r="5" fill="rgb(126, 90, 192)"><title>threshold 0.93: precision 88.9%, coverage 9.9%</title></circle><circle cx="246.83" cy="339.93" r="5" fill="rgb(120, 90, 195)"><title>threshold 0.94: precision 88.6%, coverage 9.6%</title></circle><circle cx="240.49" cy="350.98" r="5" fill="rgb(115, 90, 198)"><title>threshold 0.95: precision 88.2%, coverage 9.3%</title></circle>
</svg>