<svg xmlns="http://www.w3.org/2000/svg" width="980" height="560" viewBox="0 0 980 560">
<style>text{font-family:Arial, sans-serif} .title{font-weight:700;font-size:22px}</style>
<rect width="100%" height="100%" fill="white"/>
<text class="title" x="80" y="32">Precision от p_correct threshold</text>
<text x="80" y="532" font-size="13" fill="#374151">threshold p_correct</text>
<text transform="translate(20 270.0) rotate(-90)" font-size="13" fill="#374151">precision</text>
<line x1="80" y1="480.00" x2="950" y2="480.00" stroke="#e5e7eb"/><text x="70" y="484.00" text-anchor="end" font-size="12" fill="#374151">84.5%</text><line x1="80" y1="396.00" x2="950" y2="396.00" stroke="#e5e7eb"/><text x="70" y="400.00" text-anchor="end" font-size="12" fill="#374151">86.7%</text><line x1="80" y1="312.00" x2="950" y2="312.00" stroke="#e5e7eb"/><text x="70" y="316.00" text-anchor="end" font-size="12" fill="#374151">88.8%</text><line x1="80" y1="228.00" x2="950" y2="228.00" stroke="#e5e7eb"/><text x="70" y="232.00" text-anchor="end" font-size="12" fill="#374151">91.0%</text><line x1="80" y1="144.00" x2="950" y2="144.00" stroke="#e5e7eb"/><text x="70" y="148.00" text-anchor="end" font-size="12" fill="#374151">93.1%</text><line x1="80" y1="60.00" x2="950" y2="60.00" stroke="#e5e7eb"/><text x="70" y="64.00" text-anchor="end" font-size="12" fill="#374151">95.3%</text><line x1="80.00" y1="60" x2="80.00" y2="480" stroke="#f3f4f6"/><text x="80.00" y="504" text-anchor="middle" font-size="12" fill="#374151">0.70</text><line x1="254.00" y1="60" x2="254.00" y2="480" stroke="#f3f4f6"/><text x="254.00" y="504" text-anchor="middle" font-size="12" fill="#374151">0.75</text><line x1="428.00" y1="60" x2="428.00" y2="480" stroke="#f3f4f6"/><text x="428.00" y="504" text-anchor="middle" font-size="12" fill="#374151">0.80</text><line x1="602.00" y1="60" x2="602.00" y2="480" stroke="#f3f4f6"/><text x="602.00" y="504" text-anchor="middle" font-size="12" fill="#374151">0.85</text><line x1="776.00" y1="60" x2="776.00" y2="480" stroke="#f3f4f6"/><text x="776.00" y="504" text-anchor="middle" font-size="12" fill="#374151">0.90</text><line x1="950.00" y1="60" x2="950.00" y2="480" stroke="#f3f4f6"/><text x="950.00" y="504" text-anchor="middle" font-size="12" fill="#374151">0.95</text>
<line x1="80" y1="60" x2="80" y2="480" stroke="#111827"/>
<line x1="80" y1="480" x2="950" y2="480" stroke="#111827"/>
<polyline points="80.00,354.36 114.80,361.44 149.60,362.92 184.40,358.03 219.20,351.02 254.00,333.35 288.80,312.19 323.60,297.88 358.40,248.39 393.20,233.13 428.00,198.72 462.80,200.31 497.60,177.08 532.40,202.41 567.20,237.48 602.00,200.31 636.80,210.47 671.60,232.83 706.40,258.38 741.20,287.87 776.00,287.87 810.80,273.32 845.60,293.23 880.40,308.72 915.20,319.69 950.00,337.24" fill="none" stroke="#2563eb" stroke-width="2.4"/>
<circle cx="90" cy="510" r="5" fill="#2563eb"/><text x="100" y="515" font-size="13">Все тесты</text>
</svg>