<svg xmlns="http://www.w3.org/2000/svg" width="1100" height="620" viewBox="0 0 1100 620">
<style>text{font-family:Arial, sans-serif} .title{font-weight:700;font-size:22px}</style>
<rect width="100%" height="100%" fill="white"/>
<text class="title" x="90" y="36">Safe mode: yes_threshold по причинам</text>
<text transform="translate(24 255.0) rotate(-90)" font-size="13" fill="#374151">yes_threshold</text>
<line x1="90" y1="440.00" x2="1060" y2="440.00" stroke="#e5e7eb"/><text x="80" y="444.00" text-anchor="end" font-size="12" fill="#374151">0</text><line x1="90" y1="366.00" x2="1060" y2="366.00" stroke="#e5e7eb"/><text x="80" y="370.00" text-anchor="end" font-size="12" fill="#374151">0</text><line x1="90" y1="292.00" x2="1060" y2="292.00" stroke="#e5e7eb"/><text x="80" y="296.00" text-anchor="end" font-size="12" fill="#374151">0</text><line x1="90" y1="218.00" x2="1060" y2="218.00" stroke="#e5e7eb"/><text x="80" y="222.00" text-anchor="end" font-size="12" fill="#374151">1</text><line x1="90" y1="144.00" x2="1060" y2="144.00" stroke="#e5e7eb"/><text x="80" y="148.00" text-anchor="end" font-size="12" fill="#374151">1</text><line x1="90" y1="70.00" x2="1060" y2="70.00" stroke="#e5e7eb"/><text x="80" y="74.00" text-anchor="end" font-size="12" fill="#374151">1</text>
<line x1="90" y1="70" x2="90" y2="440" stroke="#111827"/>
<line x1="90" y1="440" x2="1060" y2="440" stroke="#111827"/>
<rect x="90.00" y="174.47" width="2.44" height="265.53" fill="#7c3aed" rx="3"><title>kasko_oformlenie / 1.0: 0.8253027432360021</title></rect><text x="91.22" y="168.47" text-anchor="middle" font-size="11" fill="#111827">0</text><text transform="translate(91.22 458) rotate(-45)" text-anchor="end" font-size="12" fill="#374151">kasko_oformlenie / 1.0</text><rect x="104.44" y="198.40" width="2.44" height="241.60" fill="#7c3aed" rx="3"><title>kasko_oformlenie / 2.0: 0.7509349313680026</title></rect><text x="105.66" y="192.40" text-anchor="middle" font-size="11" fill="#111827">0</text><text transform="translate(105.66 458) rotate(-45)" text-anchor="end" font-size="12" fill="#374151">kasko_oformlenie / 2.0</text><rect x="118.88" y="241.62" width="2.44" height="198.38" fill="#7c3aed" rx="3"><title>kasko_oformlenie / 3.0: 0.6165830135019724</title></rect><text x="120.10" y="235.62" text-anchor="middle" font-size="11" fill="#111827">0</text><text transform="translate(120.10 458) rotate(-45)" text-anchor="end" font-size="12" fill="#374151">kasko_oformlenie / 3.0</text><rect x="133.32" y="211.87" width="2.44" height="228.13" fill="#7c3aed" rx="3"><title>kasko_oformlenie / 4.0: 0.7090542981507724</title></rect><text x="134.54" y="205.87" text-anchor="middle" font-size="11" fill="#111827">0</text><text transform="translate(134.54 458) rotate(-45)" text-anchor="end" font-size="12" fill="#374151">kasko_oformlenie / 4.0</text><rect x="147.76" y="171.06" width="2.44" height="268.94" fill="#7c3aed" rx="3"><title>kasko_oformlenie / 5.0: 0.8358828912011097</title></rect><text x="148.99" y="165.06" text-anchor="middle" font-size="11" fill="#111827">0</text><text transform="translate(148.99 458) rotate(-45)" text-anchor="end" font-size="12" fill="#374151">kasko_oformlenie / 5.0</text><rect x="162.21" y="162.50" width="2.44" height="277.50" fill="#7c3aed" rx="3"><title>kasko_oformlenie / 6.0: 0.8625022198649044</title></rect><text x="163.43" y="156.50" text-anchor="middle" font-size="11" fill="#111827">0</text><text transform="translate(163.43 458) rotate(-45)" text-anchor="end" font-size="12" fill="#374151">kasko_oformlenie / 6.0</text><rect x="176.65" y="164.46" width="2.44" height="275.54" fill="#7c3aed" rx="3"><title>kasko_oformlenie / 7.0: 0.8564047698893408</title></rect><text x="177.87" y="158.46" text-anchor="middle" font-size="11" fill="#111827">0</text><text transform="translate(177.87 458) rotate(-45)" text-anchor="end" font-size="12" fill="#374151">kasko_oformlenie / 7.0</text><rect x="191.09" y="118.26" width="2.44" height="321.74" fill="#7c3aed" rx="3"><title>kasko_oformlenie / 8.0: 1.000001</title></rect><text x="192.31" y="112.26" text-anchor="middle" font-size="11" fill="#111827">1</text><text transform="translate(192.31 458) rotate(-45)" text-anchor="end" font-size="12" fill="#374151">kasko_oformlenie / 8.0</text><rect x="205.53" y="238.16" width="2.44" height="201.84" fill="#7c3aed" rx="3"><title>kasko_prolongacii / 1.0: 0.6273260956406997</title></rect><text x="206.75" y="232.16" text-anchor="middle" font-size="11" fill="#111827">0</text><text transform="translate(206.75 458) rotate(-45)" text-anchor="end" font-size="12" fill="#374151">kasko_prolongacii / 1.0</text><rect x="219.97" y="118.26" width="2.44" height="321.74" fill="#7c3aed" rx="3"><title>kasko_prolongacii / 2.0: 1.000001</title></rect><text x="221.19" y="112.26" text-anchor="middle" font-size="11" fill="#111827">1</text><text transform="translate(221.19 458) rotate(-45)" text-anchor="end" font-size="12" fill="#374151">kasko_prolongacii / 2.0</text><rect x="234.41" y="183.95" width="2.44" height="256.05" fill="#7c3aed" rx="3"><title>kasko_prolongacii / 3.0: 0.7958236329880873</title></rect><text x="235.63" y="177.95" text-anchor="middle" font-size="11" fill="#111827">0</text><text transform="translate(235.63 458) rotate(-45)" text-anchor="end" font-size="12" fill="#374151">kasko_prolongacii / 3.0</text><rect x="248.85" y="265.19" width="2.44" height="174.81" fill="#7c3aed" rx="3"><title>kasko_prolongacii / 4.0: 0.54334041289292</title></rect><text x="250.07" y="259.19" text-anchor="middle" font-size="11" fill="#111827">0</text><text transform="translate(250.07 458) rotate(-45)" text-anchor="end" font-size="12" fill="#374151">kasko_prolongacii / 4.0</text><rect x="263.29" y="214.19" width="2.44" height="225.81" fill="#7c3aed" rx="3"><title>kasko_prolongacii / 5.0: 0.7018570847823868</title></rect><text x="264.51" y="208.19" text-anchor="middle" font-size="11" fill="#111827">0</text><text transform="translate(264.51 458) rotate(-45)" text-anchor="end" font-size="12" fill="#374151">kasko_prolongacii / 5.0</text><rect x="277.74" y="191.99" width="2.44" height="248.01" fill="#7c3aed" rx="3"><title>kasko_prolongacii / 6.0: 0.7708430629762425</title></rect><text x="278.96" y="185.99" text-anchor="middle" font-size="11" fill="#111827">0</text><text transform="translate(278.96 458) rotate(-45)" text-anchor="end" font-size="12" fill="#374151">kasko_prolongacii / 6.0</text><rect x="292.18" y="118.26" width="2.44" height="321.74" fill="#7c3aed" rx="3"><title>kasko_prolongacii / 7.0: 1.000001</title></rect><text x="293.40" y="112.26" text-anchor="middle" font-size="11" fill="#111827">1</text><text transform="translate(293.40 458) rotate(-45)" text-anchor="end" font-size="12" fill="#374151">kasko_prolongacii / 7.0</text><rect x="306.62" y="118.26" width="2.44" height="321.74" fill="#7c3aed" rx="3"><title>kasko_rastorzhenie / 1.0: 1.000001</title></rect><text x="307.84" y="112.26" text-anchor="middle" font-size="11" fill="#111827">1</text><text transform="translate(307.84 458) rotate(-45)" text-anchor="end" font-size="12" fill="#374151">kasko_rastorzhenie / 1.0</text><rect x="321.06" y="118.26" width="2.44" height="321.74" fill="#7c3aed" rx="3"><title>kasko_rastorzhenie / 2.0: 1.000001</title></rect><text x="322.28" y="112.26" text-anchor="middle" font-size="11" fill="#111827">1</text><text transform="translate(322.28 458) rotate(-45)" text-anchor="end" font-size="12" fill="#374151">kasko_rastorzhenie / 2.0</text><rect x="335.50" y="118.26" width="2.44" height="321.74" fill="#7c3aed" rx="3"><title>kasko_rastorzhenie / 3.0: 1.000001</title></rect><text x="336.72" y="112.26" text-anchor="middle" font-size="11" fill="#111827">1</text><text transform="translate(336.72 458) rotate(-45)" text-anchor="end" font-size="12" fill="#374151">kasko_rastorzhenie / 3.0</text><rect x="349.94" y="118.26" width="2.44" height="321.74" fill="#7c3aed" rx="3"><title>kasko_rastorzhenie / 4.0: 1.000001</title></rect><text x="351.16" y="112.26" text-anchor="middle" font-size="11" fill="#111827">1</text><text transform="translate(351.16 458) rotate(-45)" text-anchor="end" font-size="12" fill="#374151">kasko_rastorzhenie / 4.0</text><rect x="364.38" y="118.26" width="2.44" height="321.74" fill="#7c3aed" rx="3"><title>kasko_rastorzhenie / 5.0: 1.000001</title></rect><text x="365.60" y="112.26" text-anchor="middle" font-size="11" fill="#111827">1</text><text transform="translate(365.60 458) rotate(-45)" text-anchor="end" font-size="12" fill="#374151">kasko_rastorzhenie / 5.0</text><rect x="378.82" y="118.26" width="2.44" height="321.74" fill="#7c3aed" rx="3"><title>kasko_rastorzhenie / 5.8: 1.000001</title></rect><text x="380.04" y="112.26" text-anchor="middle" font-size="11" fill="#111827">1</text><text transform="translate(380.04 458) rotate(-45)" text-anchor="end" font-size="12" fill="#374151">kasko_rastorzhenie / 5.8</text><rect x="393.26" y="118.26" width="2.44" height="321.74" fill="#7c3aed" rx="3"><title>kasko_rastorzhenie / 6.0: 1.000001</title></rect><text x="394.49" y="112.26" text-anchor="middle" font-size="11" fill="#111827">1</text><text transform="translate(394.49 458) rotate(-45)" text-anchor="end" font-size="12" fill="#374151">kasko_rastorzhenie / 6.0</text><rect x="407.71" y="118.26" width="2.44" height="321.74" fill="#7c3aed" rx="3"><title>kasko_rastorzhenie / 6.8: 1.000001</title></rect><text x="408.93" y="112.26" text-anchor="middle" font-size="11" fill="#111827">1</text><text transform="translate(408.93 458) rotate(-45)" text-anchor="end" font-size="12" fill="#374151">kasko_rastorzhenie / 6.8</text><rect x="422.15" y="118.26" width="2.44" height="321.74" fill="#7c3aed" rx="3"><title>kasko_rastorzhenie / 7.0: 1.000001</title></rect><text x="423.37" y="112.26" text-anchor="middle" font-size="11" fill="#111827">1</text><text transform="translate(423.37 458) rotate(-45)" text-anchor="end" font-size="12" fill="#374151">kasko_rastorzhenie / 7.0</text><rect x="436.59" y="273.89" width="2.44" height="166.11" fill="#7c3aed" rx="3"><title>kasko_rastorzhenie / 8.0: 0.5162980432374575</title></rect><text x="437.81" y="267.89" text-anchor="middle" font-size="11" fill="#111827">0</text><text transform="translate(437.81 458) rotate(-45)" text-anchor="end" font-size="12" fill="#374151">kasko_rastorzhenie / 8.0</text><rect x="451.03" y="118.26" width="2.44" height="321.74" fill="#7c3aed" rx="3"><title>kasko_rastorzhenie / 9.0: 1.000001</title></rect><text x="452.25" y="112.26" text-anchor="middle" font-size="11" fill="#111827">1</text><text transform="translate(452.25 458) rotate(-45)" text-anchor="end" font-size="12" fill="#374151">kasko_rastorzhenie / 9.0</text><rect x="465.47" y="279.74" width="2.44" height="160.26" fill="#7c3aed" rx="3"><title>kasko_uregulirovanie / 1.0: 0.498116226988323</title></rect><text x="466.69" y="273.74" text-anchor="middle" font-size="11" fill="#111827">0</text><text transform="translate(466.69 458) rotate(-45)" text-anchor="end" font-size="12" fill="#374151">kasko_uregulirovanie / 1.0</text><rect x="479.91" y="118.26" width="2.44" height="321.74" fill="#7c3aed" rx="3"><title>kasko_uregulirovanie / 2.0: 1.000001</title></rect><text x="481.13" y="112.26" text-anchor="middle" font-size="11" fill="#111827">1</text><text transform="translate(481.13 458) rotate(-45)" text-anchor="end" font-size="12" fill="#374151">kasko_uregulirovanie / 2.0</text><rect x="494.35" y="118.26" width="2.44" height="321.74" fill="#7c3aed" rx="3"><title>kasko_uregulirovanie / 3.0: 1.000001</title></rect><text x="495.57" y="112.26" text-anchor="middle" font-size="11" fill="#111827">1</text><text transform="translate(495.57 458) rotate(-45)" text-anchor="end" font-size="12" fill="#374151">kasko_uregulirovanie / 3.0</text><rect x="508.79" y="118.26" width="2.44" height="321.74" fill="#7c3aed" rx="3"><title>kasko_uregulirovanie / 4.0: 1.000001</title></rect><text x="510.01" y="112.26" text-anchor="middle" font-size="11" fill="#111827">1</text><text transform="translate(510.01 458) rotate(-45)" text-anchor="end" font-size="12" fill="#374151">kasko_uregulirovanie / 4.0</text><rect x="523.24" y="294.57" width="2.44" height="145.43" fill="#7c3aed" rx="3"><title>kasko_uregulirovanie / 5.0: 0.4520188842099995</title></rect><text x="524.46" y="288.57" text-anchor="middle" font-size="11" fill="#111827">0</text><text transform="translate(524.46 458) rotate(-45)" text-anchor="end" font-size="12" fill="#374151">kasko_uregulirovanie / 5.0</text><rect x="537.68" y="151.73" width="2.44" height="288.27" fill="#7c3aed" rx="3"><title>kasko_uregulirovanie / 6.0: 0.8959774103073469</title></rect><text x="538.90" y="145.73" text-anchor="middle" font-size="11" fill="#111827">0</text><text transform="translate(538.90 458) rotate(-45)" text-anchor="end" font-size="12" fill="#374151">kasko_uregulirovanie / 6.0</text><rect x="552.12" y="195.68" width="2.44" height="244.32" fill="#7c3aed" rx="3"><title>vzr_izmenenia / 1.0: 0.7593686859808735</title></rect><text x="553.34" y="189.68" text-anchor="middle" font-size="11" fill="#111827">0</text><text transform="translate(553.34 458) rotate(-45)" text-anchor="end" font-size="12" fill="#374151">vzr_izmenenia / 1.0</text><rect x="566.56" y="281.02" width="2.44" height="158.98" fill="#7c3aed" rx="3"><title>vzr_izmenenia / 2.0: 0.4941351811672057</title></rect><text x="567.78" y="275.02" text-anchor="middle" font-size="11" fill="#111827">0</text><text transform="translate(567.78 458) rotate(-45)" text-anchor="end" font-size="12" fill="#374151">vzr_izmenenia / 2.0</text><rect x="581.00" y="208.91" width="2.44" height="231.09" fill="#7c3aed" rx="3"><title>vzr_izmenenia / 3.0: 0.7182540080188995</title></rect><text x="582.22" y="202.91" text-anchor="middle" font-size="11" fill="#111827">0</text><text transform="translate(582.22 458) rotate(-45)" text-anchor="end" font-size="12" fill="#374151">vzr_izmenenia / 3.0</text><rect x="595.44" y="305.56" width="2.44" height="134.44" fill="#7c3aed" rx="3"><title>vzr_izmenenia / 4.0: 0.4178456641285649</title></rect><text x="596.66" y="299.56" text-anchor="middle" font-size="11" fill="#111827">0</text><text transform="translate(596.66 458) rotate(-45)" text-anchor="end" font-size="12" fill="#374151">vzr_izmenenia / 4.0</text><rect x="609.88" y="199.37" width="2.44" height="240.63" fill="#7c3aed" rx="3"><title>vzr_izmenenia / 5.0: 0.7479150102569389</title></rect><text x="611.10" y="193.37" text-anchor="middle" font-size="11" fill="#111827">0</text><text transform="translate(611.10 458) rotate(-45)" text-anchor="end" font-size="12" fill="#374151">vzr_izmenenia / 5.0</text><rect x="624.32" y="162.66" width="2.44" height="277.34" fill="#7c3aed" rx="3"><title>vzr_oformlenie / 1.0: 0.8620137366474174</title></rect><text x="625.54" y="156.66" text-anchor="middle" font-size="11" fill="#111827">0</text><text transform="translate(625.54 458) rotate(-45)" text-anchor="end" font-size="12" fill="#374151">vzr_oformlenie / 1.0</text><rect x="638.76" y="179.49" width="2.44" height="260.51" fill="#7c3aed" rx="3"><title>vzr_oformlenie / 2.0: 0.8097058875016044</title></rect><text x="639.99" y="173.49" text-anchor="middle" font-size="11" fill="#111827">0</text><text transform="translate(639.99 458) rotate(-45)" text-anchor="end" font-size="12" fill="#374151">vzr_oformlenie / 2.0</text><rect x="653.21" y="188.17" width="2.44" height="251.83" fill="#7c3aed" rx="3"><title>vzr_oformlenie / 3.0: 0.7827296502809137</title></rect><text x="654.43" y="182.17" text-anchor="middle" font-size="11" fill="#111827">0</text><text transform="translate(654.43 458) rotate(-45)" text-anchor="end" font-size="12" fill="#374151">vzr_oformlenie / 3.0</text><rect x="667.65" y="118.26" width="2.44" height="321.74" fill="#7c3aed" rx="3"><title>vzr_oformlenie / 4.0: 1.000001</title></rect><text x="668.87" y="112.26" text-anchor="middle" font-size="11" fill="#111827">1</text><text transform="translate(668.87 458) rotate(-45)" text-anchor="end" font-size="12" fill="#374151">vzr_oformlenie / 4.0</text><rect x="682.09" y="118.26" width="2.44" height="321.74" fill="#7c3aed" rx="3"><title>vzr_oformlenie / 5.0: 1.000001</title></rect><text x="683.31" y="112.26" text-anchor="middle" font-size="11" fill="#111827">1</text><text transform="translate(683.31 458) rotate(-45)" text-anchor="end" font-size="12" fill="#374151">vzr_oformlenie / 5.0</text><rect x="696.53" y="240.04" width="2.44" height="199.96" fill="#7c3aed" rx="3"><title>vzr_oformlenie / 6.0: 0.6215058317696552</title></rect><text x="697.75" y="234.04" text-anchor="middle" font-size="11" fill="#111827">0</text><text transform="translate(697.75 458) rotate(-45)" text-anchor="end" font-size="12" fill="#374151">vzr_oformlenie / 6.0</text><rect x="710.97" y="254.62" width="2.44" height="185.38" fill="#7c3aed" rx="3"><title>vzr_oformlenie / 7.0: 0.5761850736325542</title></rect><text x="712.19" y="248.62" text-anchor="middle" font-size="11" fill="#111827">0</text><text transform="translate(712.19 458) rotate(-45)" text-anchor="end" font-size="12" fill="#374151">vzr_oformlenie / 7.0</text><rect x="725.41" y="118.26" width="2.44" height="321.74" fill="#7c3aed" rx="3"><title>vzr_oformlenie / 7.3: 1.000001</title></rect><text x="726.63" y="112.26" text-anchor="middle" font-size="11" fill="#111827">1</text><text transform="translate(726.63 458) rotate(-45)" text-anchor="end" font-size="12" fill="#374151">vzr_oformlenie / 7.3</text><rect x="739.85" y="212.31" width="2.44" height="227.69" fill="#7c3aed" rx="3"><title>vzr_oformlenie / 8.0: 0.7076813894596509</title></rect><text x="741.07" y="206.31" text-anchor="middle" font-size="11" fill="#111827">0</text><text transform="translate(741.07 458) rotate(-45)" text-anchor="end" font-size="12" fill="#374151">vzr_oformlenie / 8.0</text><rect x="754.29" y="209.78" width="2.44" height="230.22" fill="#7c3aed" rx="3"><title>vzr_prolongacii / 1.0: 0.7155629315555321</title></rect><text x="755.51" y="203.78" text-anchor="middle" font-size="11" fill="#111827">0</text><text transform="translate(755.51 458) rotate(-45)" text-anchor="end" font-size="12" fill="#374151">vzr_prolongacii / 1.0</text><rect x="768.74" y="205.25" width="2.44" height="234.75" fill="#7c3aed" rx="3"><title>vzr_prolongacii / 2.0: 0.7296226685449747</title></rect><text x="769.96" y="199.25" text-anchor="middle" font-size="11" fill="#111827">0</text><text transform="translate(769.96 458) rotate(-45)" text-anchor="end" font-size="12" fill="#374151">vzr_prolongacii / 2.0</text><rect x="783.18" y="118.26" width="2.44" height="321.74" fill="#7c3aed" rx="3"><title>vzr_prolongacii / 3.0: 1.000001</title></rect><text x="784.40" y="112.26" text-anchor="middle" font-size="11" fill="#111827">1</text><text transform="translate(784.40 458) rotate(-45)" text-anchor="end" font-size="12" fill="#374151">vzr_prolongacii / 3.0</text><rect x="797.62" y="198.42" width="2.44" height="241.58" fill="#7c3aed" rx="3"><title>vzr_prolongacii / 4.0: 0.750867682173309</title></rect><text x="798.84" y="192.42" text-anchor="middle" font-size="11" fill="#111827">0</text><text transform="translate(798.84 458) rotate(-45)" text-anchor="end" font-size="12" fill="#374151">vzr_prolongacii / 4.0</text><rect x="812.06" y="118.26" width="2.44" height="321.74" fill="#7c3aed" rx="3"><title>vzr_prolongacii / 5.0: 1.000001</title></rect><text x="813.28" y="112.26" text-anchor="middle" font-size="11" fill="#111827">1</text><text transform="translate(813.28 458) rotate(-45)" text-anchor="end" font-size="12" fill="#374151">vzr_prolongacii / 5.0</text><rect x="826.50" y="181.72" width="2.44" height="258.28" fill="#7c3aed" rx="3"><title>vzr_prolongacii / 6.0: 0.8027648706901188</title></rect><text x="827.72" y="175.72" text-anchor="middle" font-size="11" fill="#111827">0</text><text transform="translate(827.72 458) rotate(-45)" text-anchor="end" font-size="12" fill="#374151">vzr_prolongacii / 6.0</text><rect x="840.94" y="118.26" width="2.44" height="321.74" fill="#7c3aed" rx="3"><title>vzr_prolongacii / 7.0: 1.000001</title></rect><text x="842.16" y="112.26" text-anchor="middle" font-size="11" fill="#111827">1</text><text transform="translate(842.16 458) rotate(-45)" text-anchor="end" font-size="12" fill="#374151">vzr_prolongacii / 7.0</text><rect x="855.38" y="230.78" width="2.44" height="209.22" fill="#7c3aed" rx="3"><title>vzr_prolongacii / 8.0: 0.650269254447666</title></rect><text x="856.60" y="224.78" text-anchor="middle" font-size="11" fill="#111827">0</text><text transform="translate(856.60 458) rotate(-45)" text-anchor="end" font-size="12" fill="#374151">vzr_prolongacii / 8.0</text><rect x="869.82" y="118.26" width="2.44" height="321.74" fill="#7c3aed" rx="3"><title>vzr_rastorzhenia / 1.0: 1.000001</title></rect><text x="871.04" y="112.26" text-anchor="middle" font-size="11" fill="#111827">1</text><text transform="translate(871.04 458) rotate(-45)" text-anchor="end" font-size="12" fill="#374151">vzr_rastorzhenia / 1.0</text><rect x="884.26" y="212.65" width="2.44" height="227.35" fill="#7c3aed" rx="3"><title>vzr_rastorzhenia / 2.0: 0.7066277822243547</title></rect><text x="885.49" y="206.65" text-anchor="middle" font-size="11" fill="#111827">0</text><text transform="translate(885.49 458) rotate(-45)" text-anchor="end" font-size="12" fill="#374151">vzr_rastorzhenia / 2.0</text><rect x="898.71" y="191.67" width="2.44" height="248.33" fill="#7c3aed" rx="3"><title>vzr_rastorzhenia / 3.0: 0.7718429778155679</title></rect><text x="899.93" y="185.67" text-anchor="middle" font-size="11" fill="#111827">0</text><text transform="translate(899.93 458) rotate(-45)" text-anchor="end" font-size="12" fill="#374151">vzr_rastorzhenia / 3.0</text><rect x="913.15" y="118.26" width="2.44" height="321.74" fill="#7c3aed" rx="3"><title>vzr_rastorzhenia / 4.0: 1.000001</title></rect><text x="914.37" y="112.26" text-anchor="middle" font-size="11" fill="#111827">1</text><text transform="translate(914.37 458) rotate(-45)" text-anchor="end" font-size="12" fill="#374151">vzr_rastorzhenia / 4.0</text><rect x="927.59" y="308.73" width="2.44" height="131.27" fill="#7c3aed" rx="3"><title>vzr_rastorzhenia / 5.0: 0.4079875303791415</title></rect><text x="928.81" y="302.73" text-anchor="middle" font-size="11" fill="#111827">0</text><text transform="translate(928.81 458) rotate(-45)" text-anchor="end" font-size="12" fill="#374151">vzr_rastorzhenia / 5.0</text><rect x="942.03" y="239.30" width="2.44" height="200.70" fill="#7c3aed" rx="3"><title>vzr_rastorzhenia / 6.0: 0.6237997615327732</title></rect><text x="943.25" y="233.30" text-anchor="middle" font-size="11" fill="#111827">0</text><text transform="translate(943.25 458) rotate(-45)" text-anchor="end" font-size="12" fill="#374151">vzr_rastorzhenia / 6.0</text><rect x="956.47" y="118.26" width="2.44" height="321.74" fill="#7c3aed" rx="3"><title>vzr_uregulirovanie / 1.0: 1.000001</title></rect><text x="957.69" y="112.26" text-anchor="middle" font-size="11" fill="#111827">1</text><text transform="translate(957.69 458) rotate(-45)" text-anchor="end" font-size="12" fill="#374151">vzr_uregulirovanie / 1.0</text><rect x="970.91" y="155.84" width="2.44" height="284.16" fill="#7c3aed" rx="3"><title>vzr_uregulirovanie / 2.0: 0.8832125587178549</title></rect><text x="972.13" y="149.84" text-anchor="middle" font-size="11" fill="#111827">0</text><text transform="translate(972.13 458) rotate(-45)" text-anchor="end" font-size="12" fill="#374151">vzr_uregulirovanie / 2.0</text><rect x="985.35" y="118.26" width="2.44" height="321.74" fill="#7c3aed" rx="3"><title>vzr_uregulirovanie / 3.0: 1.000001</title></rect><text x="986.57" y="112.26" text-anchor="middle" font-size="11" fill="#111827">1</text><text transform="translate(986.57 458) rotate(-45)" text-anchor="end" font-size="12" fill="#374151">vzr_uregulirovanie / 3.0</text><rect x="999.79" y="279.63" width="2.44" height="160.37" fill="#7c3aed" rx="3"><title>vzr_uregulirovanie / 4.0: 0.4984355451657021</title></rect><text x="1001.01" y="273.63" text-anchor="middle" font-size="11" fill="#111827">0</text><text transform="translate(1001.01 458) rotate(-45)" text-anchor="end" font-size="12" fill="#374151">vzr_uregulirovanie / 4.0</text><rect x="1014.24" y="279.78" width="2.44" height="160.22" fill="#7c3aed" rx="3"><title>vzr_uregulirovanie / 5.0: 0.4979909728218811</title></rect><text x="1015.46" y="273.78" text-anchor="middle" font-size="11" fill="#111827">0</text><text transform="translate(1015.46 458) rotate(-45)" text-anchor="end" font-size="12" fill="#374151">vzr_uregulirovanie / 5.0</text><rect x="1028.68" y="276.26" width="2.44" height="163.74" fill="#7c3aed" rx="3"><title>vzr_uregulirovanie / 6.0: 0.508911281442992</title></rect><text x="1029.90" y="270.26" text-anchor="middle" font-size="11" fill="#111827">0</text><text transform="translate(1029.90 458) rotate(-45)" text-anchor="end" font-size="12" fill="#374151">vzr_uregulirovanie / 6.0</text><rect x="1043.12" y="206.65" width="2.44" height="233.35" fill="#7c3aed" rx="3"><title>vzr_uregulirovanie / 7.0: 0.7252757568526386</title></rect><text x="1044.34" y="200.65" text-anchor="middle" font-size="11" fill="#111827">0</text><text transform="translate(1044.34 458) rotate(-45)" text-anchor="end" font-size="12" fill="#374151">vzr_uregulirovanie / 7.0</text><rect x="1057.56" y="118.26" width="2.44" height="321.74" fill="#7c3aed" rx="3"><title>vzr_uregulirovanie / 8.0: 1.000001</title></rect><text x="1058.78" y="112.26" text-anchor="middle" font-size="11" fill="#111827">1</text><text transform="translate(1058.78 458) rotate(-45)" text-anchor="end" font-size="12" fill="#374151">vzr_uregulirovanie / 8.0</text>
</svg>